<svg xmlns="http://www.w3.org/2000/svg" xmlns:xlink="http://www.w3.org/1999/xlink" width="500" zoomAndPan="magnify" viewBox="0 0 375 374.999991" height="500" preserveAspectRatio="xMidYMid meet" version="1.0"><defs><g/><clipPath id="d89340cfdc"><path d="M 101.394531 37.71875 L 273.894531 37.71875 L 273.894531 205 L 101.394531 205 Z M 101.394531 37.71875 " clip-rule="nonzero"/></clipPath><clipPath id="dcd78f97a7"><path d="M 171 177 L 204 177 L 204 209.46875 L 171 209.46875 Z M 171 177 " clip-rule="nonzero"/></clipPath><clipPath id="f5f88d6584"><path d="M 193 104 L 218.902344 104 L 218.902344 143 L 193 143 Z M 193 104 " clip-rule="nonzero"/></clipPath><clipPath id="d87445d20d"><path d="M 156.089844 104 L 182 104 L 182 143 L 156.089844 143 Z M 156.089844 104 " clip-rule="nonzero"/></clipPath></defs><g clip-path="url(#d89340cfdc)"><path fill="#000000" d="M 101.472656 123.503906 C 101.472656 160.480469 124.972656 191.992188 157.785156 204.121094 C 156.5625 200.761719 155.863281 197.152344 155.863281 193.375 C 155.863281 185.105469 159.082031 177.585938 164.300781 171.945312 C 146.242188 163.265625 133.714844 144.84375 133.714844 123.503906 C 133.714844 93.855469 157.835938 69.734375 187.488281 69.734375 C 217.136719 69.734375 241.257812 93.855469 241.257812 123.503906 C 241.257812 144.84375 228.730469 163.265625 210.671875 171.945312 C 215.890625 177.585938 219.109375 185.101562 219.109375 193.375 C 219.109375 197.152344 218.410156 200.761719 217.191406 204.121094 C 250 191.992188 273.5 160.480469 273.5 123.503906 C 273.5 76.078125 234.914062 37.492188 187.488281 37.492188 C 140.058594 37.492188 101.472656 76.078125 101.472656 123.503906 Z M 101.472656 123.503906 " fill-opacity="1" fill-rule="nonzero"/></g><g clip-path="url(#dcd78f97a7)"><path fill="#a70000" d="M 203.589844 193.378906 C 203.589844 202.253906 196.363281 209.476562 187.484375 209.476562 C 178.609375 209.476562 171.386719 202.253906 171.386719 193.378906 C 171.386719 184.5 178.609375 177.277344 187.484375 177.277344 C 196.363281 177.277344 203.589844 184.5 203.589844 193.378906 Z M 203.589844 193.378906 " fill-opacity="1" fill-rule="nonzero"/></g><g clip-path="url(#f5f88d6584)"><path fill="#a70000" d="M 219.136719 123.175781 L 201.0625 141.433594 C 197.570312 144.960938 190.402344 138.4375 194.605469 134.332031 L 206.042969 123.175781 L 194.238281 112.203125 C 190.644531 108.859375 197.300781 102.003906 200.878906 105.46875 Z M 219.136719 123.175781 " fill-opacity="1" fill-rule="nonzero"/></g><g clip-path="url(#d87445d20d)"><path fill="#a70000" d="M 155.855469 123.789062 L 173.929688 105.53125 C 177.421875 102.003906 184.589844 108.527344 180.382812 112.632812 L 168.949219 123.789062 L 180.753906 134.761719 C 184.347656 138.105469 177.6875 144.960938 174.113281 141.496094 Z M 155.855469 123.789062 " fill-opacity="1" fill-rule="nonzero"/></g><g fill="#a70000" fill-opacity="1"><g transform="translate(37.207328, 286.475505)"><g><path d="M 1.859375 -33.296875 C 1.859375 -42.921875 5.132812 -51.066406 11.6875 -57.734375 C 18.25 -64.398438 26.15625 -67.734375 35.40625 -67.734375 C 44.707031 -67.734375 52.609375 -64.410156 59.109375 -57.765625 C 65.609375 -51.128906 68.859375 -42.972656 68.859375 -33.296875 C 68.859375 -23.566406 65.660156 -15.382812 59.265625 -8.75 C 52.867188 -2.113281 44.914062 1.203125 35.40625 1.203125 C 25.675781 1.203125 17.648438 -2.085938 11.328125 -8.671875 C 5.015625 -15.253906 1.859375 -23.460938 1.859375 -33.296875 Z M 18.21875 -33.296875 C 18.21875 -29.804688 18.753906 -26.625 19.828125 -23.75 C 20.910156 -20.875 22.796875 -18.441406 25.484375 -16.453125 C 28.171875 -14.460938 31.476562 -13.46875 35.40625 -13.46875 C 41.050781 -13.46875 45.3125 -15.398438 48.1875 -19.265625 C 51.0625 -23.140625 52.5 -27.816406 52.5 -33.296875 C 52.5 -38.734375 51.03125 -43.398438 48.09375 -47.296875 C 45.164062 -51.191406 40.9375 -53.140625 35.40625 -53.140625 C 29.914062 -53.140625 25.675781 -51.191406 22.6875 -47.296875 C 19.707031 -43.398438 18.21875 -38.734375 18.21875 -33.296875 Z M 18.21875 -33.296875 "/></g></g></g><g fill="#a70000" fill-opacity="1"><g transform="translate(117.771361, 286.475505)"><g><path d="M 4.84375 -66.53125 L 28.625 -66.53125 C 35.019531 -66.53125 40.234375 -64.820312 44.265625 -61.40625 C 48.296875 -57.988281 50.3125 -53.109375 50.3125 -46.765625 C 50.3125 -41.878906 49.085938 -37.78125 46.640625 -34.46875 C 44.203125 -31.164062 40.882812 -28.84375 36.6875 -27.5 L 59.59375 0 L 40.3125 0 L 20 -26.28125 L 20 0 L 4.84375 0 Z M 20 -37.015625 L 21.765625 -37.015625 C 23.171875 -37.015625 24.351562 -37.039062 25.3125 -37.09375 C 26.28125 -37.144531 27.382812 -37.332031 28.625 -37.65625 C 29.863281 -37.976562 30.859375 -38.4375 31.609375 -39.03125 C 32.359375 -39.625 33.003906 -40.484375 33.546875 -41.609375 C 34.085938 -42.734375 34.359375 -44.101562 34.359375 -45.71875 C 34.359375 -47.332031 34.085938 -48.703125 33.546875 -49.828125 C 33.003906 -50.960938 32.359375 -51.820312 31.609375 -52.40625 C 30.859375 -53 29.863281 -53.457031 28.625 -53.78125 C 27.382812 -54.101562 26.28125 -54.289062 25.3125 -54.34375 C 24.351562 -54.40625 23.171875 -54.4375 21.765625 -54.4375 L 20 -54.4375 Z M 20 -37.015625 "/></g></g></g><g fill="#a70000" fill-opacity="1"><g transform="translate(185.351776, 286.475505)"><g><path d="M 4.84375 -66.53125 L 25.484375 -66.53125 C 31.722656 -66.53125 36.695312 -65.195312 40.40625 -62.53125 C 44.113281 -59.875 45.96875 -55.5625 45.96875 -49.59375 C 45.96875 -42.925781 43.195312 -38.171875 37.65625 -35.328125 C 47.125 -33.660156 51.859375 -28.066406 51.859375 -18.546875 C 51.859375 -12.953125 49.921875 -8.460938 46.046875 -5.078125 C 42.171875 -1.691406 36.847656 0 30.078125 0 L 4.84375 0 Z M 20 -40.484375 L 21.203125 -40.484375 C 24.585938 -40.484375 27.113281 -41.070312 28.78125 -42.25 C 30.445312 -43.4375 31.28125 -45.375 31.28125 -48.0625 C 31.28125 -52.570312 27.921875 -54.828125 21.203125 -54.828125 L 20 -54.828125 Z M 20 -11.6875 L 24.75 -11.6875 C 32.175781 -11.6875 35.890625 -14.160156 35.890625 -19.109375 C 35.890625 -22.066406 34.960938 -24.191406 33.109375 -25.484375 C 31.253906 -26.773438 28.46875 -27.421875 24.75 -27.421875 L 20 -27.421875 Z M 20 -11.6875 "/></g></g></g><g fill="#a70000" fill-opacity="1"><g transform="translate(248.900012, 286.475505)"><g><path d="M 20 -66.53125 L 20 0 L 4.84375 0 L 4.84375 -66.53125 Z M 20 -66.53125 "/></g></g></g><g fill="#a70000" fill-opacity="1"><g transform="translate(283.577816, 286.475505)"><g><path d="M 29.359375 -67.734375 C 32.953125 -67.734375 36.46875 -67.207031 39.90625 -66.15625 C 43.351562 -65.113281 45.910156 -64.082031 47.578125 -63.0625 L 50 -61.453125 L 43.875 -49.359375 C 43.382812 -49.671875 42.707031 -50.082031 41.84375 -50.59375 C 40.988281 -51.113281 39.378906 -51.800781 37.015625 -52.65625 C 34.648438 -53.519531 32.445312 -53.953125 30.40625 -53.953125 C 27.875 -53.953125 25.921875 -53.410156 24.546875 -52.328125 C 23.179688 -51.253906 22.5 -49.804688 22.5 -47.984375 C 22.5 -47.066406 22.820312 -46.21875 23.46875 -45.4375 C 24.113281 -44.65625 25.210938 -43.820312 26.765625 -42.9375 C 28.328125 -42.050781 29.695312 -41.335938 30.875 -40.796875 C 32.0625 -40.265625 33.894531 -39.460938 36.375 -38.390625 C 40.664062 -36.554688 44.332031 -34.066406 47.375 -30.921875 C 50.414062 -27.773438 51.9375 -24.210938 51.9375 -20.234375 C 51.9375 -16.421875 51.25 -13.085938 49.875 -10.234375 C 48.5 -7.390625 46.613281 -5.160156 44.21875 -3.546875 C 41.832031 -1.929688 39.1875 -0.738281 36.28125 0.03125 C 33.382812 0.8125 30.242188 1.203125 26.859375 1.203125 C 23.953125 1.203125 21.097656 0.90625 18.296875 0.3125 C 15.503906 -0.269531 13.164062 -1.003906 11.28125 -1.890625 C 9.40625 -2.773438 7.710938 -3.648438 6.203125 -4.515625 C 4.703125 -5.378906 3.601562 -6.101562 2.90625 -6.6875 L 1.859375 -7.578125 L 9.4375 -20.328125 C 10.082031 -19.785156 10.96875 -19.097656 12.09375 -18.265625 C 13.226562 -17.429688 15.234375 -16.316406 18.109375 -14.921875 C 20.984375 -13.523438 23.519531 -12.828125 25.71875 -12.828125 C 32.125 -12.828125 35.328125 -15.003906 35.328125 -19.359375 C 35.328125 -20.265625 35.097656 -21.109375 34.640625 -21.890625 C 34.179688 -22.671875 33.375 -23.453125 32.21875 -24.234375 C 31.0625 -25.015625 30.039062 -25.628906 29.15625 -26.078125 C 28.269531 -26.535156 26.816406 -27.234375 24.796875 -28.171875 C 22.773438 -29.117188 21.285156 -29.835938 20.328125 -30.328125 C 16.285156 -32.304688 13.160156 -34.785156 10.953125 -37.765625 C 8.753906 -40.753906 7.65625 -43.972656 7.65625 -47.421875 C 7.65625 -53.390625 9.859375 -58.265625 14.265625 -62.046875 C 18.679688 -65.835938 23.710938 -67.734375 29.359375 -67.734375 Z M 29.359375 -67.734375 "/></g></g></g><g fill="#000000" fill-opacity="1"><g transform="translate(49.625268, 320.529601)"><g><path d="M 5.234375 -8.03125 L 5.234375 -6.421875 L 2.421875 -6.421875 L 2.421875 -4.828125 L 5.015625 -4.828125 L 5.015625 -3.21875 L 2.421875 -3.21875 L 2.421875 0 L 0.578125 0 L 0.578125 -8.03125 Z M 5.234375 -8.03125 "/></g></g></g><g fill="#000000" fill-opacity="1"><g transform="translate(59.25023, 320.529601)"><g><path d="M 0.21875 -4.015625 C 0.21875 -5.179688 0.613281 -6.164062 1.40625 -6.96875 C 2.195312 -7.769531 3.148438 -8.171875 4.265625 -8.171875 C 5.390625 -8.171875 6.34375 -7.769531 7.125 -6.96875 C 7.914062 -6.164062 8.3125 -5.179688 8.3125 -4.015625 C 8.3125 -2.847656 7.925781 -1.863281 7.15625 -1.0625 C 6.382812 -0.257812 5.421875 0.140625 4.265625 0.140625 C 3.097656 0.140625 2.128906 -0.253906 1.359375 -1.046875 C 0.597656 -1.835938 0.21875 -2.828125 0.21875 -4.015625 Z M 2.203125 -4.015625 C 2.203125 -3.597656 2.265625 -3.210938 2.390625 -2.859375 C 2.523438 -2.515625 2.753906 -2.222656 3.078125 -1.984375 C 3.398438 -1.742188 3.796875 -1.625 4.265625 -1.625 C 4.953125 -1.625 5.46875 -1.859375 5.8125 -2.328125 C 6.164062 -2.796875 6.34375 -3.359375 6.34375 -4.015625 C 6.34375 -4.671875 6.164062 -5.234375 5.8125 -5.703125 C 5.457031 -6.179688 4.941406 -6.421875 4.265625 -6.421875 C 3.609375 -6.421875 3.097656 -6.179688 2.734375 -5.703125 C 2.378906 -5.234375 2.203125 -4.671875 2.203125 -4.015625 Z M 2.203125 -4.015625 "/></g></g></g><g fill="#000000" fill-opacity="1"><g transform="translate(71.894762, 320.529601)"><g><path d="M 0.578125 -8.03125 L 3.453125 -8.03125 C 4.222656 -8.03125 4.851562 -7.820312 5.34375 -7.40625 C 5.832031 -7 6.078125 -6.410156 6.078125 -5.640625 C 6.078125 -5.054688 5.925781 -4.5625 5.625 -4.15625 C 5.332031 -3.757812 4.929688 -3.476562 4.421875 -3.3125 L 7.1875 0 L 4.875 0 L 2.421875 -3.171875 L 2.421875 0 L 0.578125 0 Z M 2.421875 -4.46875 L 2.625 -4.46875 C 2.789062 -4.46875 2.929688 -4.46875 3.046875 -4.46875 C 3.171875 -4.476562 3.304688 -4.503906 3.453125 -4.546875 C 3.597656 -4.585938 3.71875 -4.640625 3.8125 -4.703125 C 3.90625 -4.773438 3.984375 -4.878906 4.046875 -5.015625 C 4.109375 -5.160156 4.140625 -5.328125 4.140625 -5.515625 C 4.140625 -5.710938 4.109375 -5.878906 4.046875 -6.015625 C 3.984375 -6.148438 3.90625 -6.253906 3.8125 -6.328125 C 3.71875 -6.398438 3.597656 -6.453125 3.453125 -6.484375 C 3.304688 -6.523438 3.171875 -6.550781 3.046875 -6.5625 C 2.929688 -6.570312 2.789062 -6.578125 2.625 -6.578125 L 2.421875 -6.578125 Z M 2.421875 -4.46875 "/></g></g></g><g fill="#000000" fill-opacity="1"><g transform="translate(82.971069, 320.529601)"><g/></g></g><g fill="#000000" fill-opacity="1"><g transform="translate(89.732314, 320.529601)"><g><path d="M 0.21875 -4.015625 C 0.21875 -5.179688 0.613281 -6.164062 1.40625 -6.96875 C 2.195312 -7.769531 3.148438 -8.171875 4.265625 -8.171875 C 5.390625 -8.171875 6.34375 -7.769531 7.125 -6.96875 C 7.914062 -6.164062 8.3125 -5.179688 8.3125 -4.015625 C 8.3125 -2.847656 7.925781 -1.863281 7.15625 -1.0625 C 6.382812 -0.257812 5.421875 0.140625 4.265625 0.140625 C 3.097656 0.140625 2.128906 -0.253906 1.359375 -1.046875 C 0.597656 -1.835938 0.21875 -2.828125 0.21875 -4.015625 Z M 2.203125 -4.015625 C 2.203125 -3.597656 2.265625 -3.210938 2.390625 -2.859375 C 2.523438 -2.515625 2.753906 -2.222656 3.078125 -1.984375 C 3.398438 -1.742188 3.796875 -1.625 4.265625 -1.625 C 4.953125 -1.625 5.46875 -1.859375 5.8125 -2.328125 C 6.164062 -2.796875 6.34375 -3.359375 6.34375 -4.015625 C 6.34375 -4.671875 6.164062 -5.234375 5.8125 -5.703125 C 5.457031 -6.179688 4.941406 -6.421875 4.265625 -6.421875 C 3.609375 -6.421875 3.097656 -6.179688 2.734375 -5.703125 C 2.378906 -5.234375 2.203125 -4.671875 2.203125 -4.015625 Z M 2.203125 -4.015625 "/></g></g></g><g fill="#000000" fill-opacity="1"><g transform="translate(102.376849, 320.529601)"><g><path d="M 0.578125 -8.03125 L 3.515625 -8.03125 C 4.328125 -8.03125 4.988281 -7.816406 5.5 -7.390625 C 6.007812 -6.972656 6.265625 -6.359375 6.265625 -5.546875 C 6.265625 -4.742188 6.003906 -4.113281 5.484375 -3.65625 C 4.972656 -3.207031 4.316406 -2.984375 3.515625 -2.984375 L 2.421875 -2.984375 L 2.421875 0 L 0.578125 0 Z M 2.421875 -4.4375 L 2.9375 -4.4375 C 3.34375 -4.4375 3.675781 -4.519531 3.9375 -4.6875 C 4.195312 -4.851562 4.328125 -5.125 4.328125 -5.5 C 4.328125 -5.882812 4.195312 -6.160156 3.9375 -6.328125 C 3.675781 -6.492188 3.34375 -6.578125 2.9375 -6.578125 L 2.421875 -6.578125 Z M 2.421875 -4.4375 "/></g></g></g><g fill="#000000" fill-opacity="1"><g transform="translate(112.966127, 320.529601)"><g><path d="M 5.171875 -8.03125 L 5.171875 -6.421875 L 2.421875 -6.421875 L 2.421875 -4.828125 L 5.0625 -4.828125 L 5.0625 -3.21875 L 2.421875 -3.21875 L 2.421875 -1.609375 L 5.171875 -1.609375 L 5.171875 0 L 0.578125 0 L 0.578125 -8.03125 Z M 5.171875 -8.03125 "/></g></g></g><g fill="#000000" fill-opacity="1"><g transform="translate(122.717722, 320.529601)"><g><path d="M 0.578125 -8.03125 L 3.453125 -8.03125 C 4.222656 -8.03125 4.851562 -7.820312 5.34375 -7.40625 C 5.832031 -7 6.078125 -6.410156 6.078125 -5.640625 C 6.078125 -5.054688 5.925781 -4.5625 5.625 -4.15625 C 5.332031 -3.757812 4.929688 -3.476562 4.421875 -3.3125 L 7.1875 0 L 4.875 0 L 2.421875 -3.171875 L 2.421875 0 L 0.578125 0 Z M 2.421875 -4.46875 L 2.625 -4.46875 C 2.789062 -4.46875 2.929688 -4.46875 3.046875 -4.46875 C 3.171875 -4.476562 3.304688 -4.503906 3.453125 -4.546875 C 3.597656 -4.585938 3.71875 -4.640625 3.8125 -4.703125 C 3.90625 -4.773438 3.984375 -4.878906 4.046875 -5.015625 C 4.109375 -5.160156 4.140625 -5.328125 4.140625 -5.515625 C 4.140625 -5.710938 4.109375 -5.878906 4.046875 -6.015625 C 3.984375 -6.148438 3.90625 -6.253906 3.8125 -6.328125 C 3.71875 -6.398438 3.597656 -6.453125 3.453125 -6.484375 C 3.304688 -6.523438 3.171875 -6.550781 3.046875 -6.5625 C 2.929688 -6.570312 2.789062 -6.578125 2.625 -6.578125 L 2.421875 -6.578125 Z M 2.421875 -4.46875 "/></g></g></g><g fill="#000000" fill-opacity="1"><g transform="translate(133.794031, 320.529601)"><g><path d="M 4.65625 -8.03125 L 7.90625 0 L 5.9375 0 L 5.34375 -1.609375 L 2.28125 -1.609375 L 1.6875 0 L -0.265625 0 L 2.96875 -8.03125 Z M 4.71875 -3.21875 L 3.828125 -5.546875 L 3.8125 -5.546875 L 2.90625 -3.21875 Z M 4.71875 -3.21875 "/></g></g></g><g fill="#000000" fill-opacity="1"><g transform="translate(145.532698, 320.529601)"><g><path d="M 0.078125 -6.421875 L 0.078125 -8.03125 L 5.71875 -8.03125 L 5.71875 -6.421875 L 3.8125 -6.421875 L 3.8125 0 L 1.984375 0 L 1.984375 -6.421875 Z M 0.078125 -6.421875 "/></g></g></g><g fill="#000000" fill-opacity="1"><g transform="translate(155.440137, 320.529601)"><g><path d="M 2.421875 -8.03125 L 2.421875 0 L 0.578125 0 L 0.578125 -8.03125 Z M 2.421875 -8.03125 "/></g></g></g><g fill="#000000" fill-opacity="1"><g transform="translate(162.542303, 320.529601)"><g><path d="M 2.421875 -4.984375 L 2.421875 0 L 0.578125 0 L 0.578125 -8.03125 L 2.421875 -8.03125 L 5.609375 -3.046875 L 5.625 -3.046875 L 5.625 -8.03125 L 7.453125 -8.03125 L 7.453125 0 L 5.625 0 L 2.4375 -4.984375 Z M 2.421875 -4.984375 "/></g></g></g><g fill="#000000" fill-opacity="1"><g transform="translate(174.690065, 320.529601)"><g><path d="M 7.84375 -4.5 L 7.84375 -2.75 C 7.632812 -1.800781 7.179688 -1.082031 6.484375 -0.59375 C 5.785156 -0.101562 5.003906 0.140625 4.140625 0.140625 C 3.054688 0.140625 2.128906 -0.257812 1.359375 -1.0625 C 0.597656 -1.875 0.21875 -2.859375 0.21875 -4.015625 C 0.21875 -5.179688 0.59375 -6.164062 1.34375 -6.96875 C 2.09375 -7.769531 3.023438 -8.171875 4.140625 -8.171875 C 5.441406 -8.171875 6.472656 -7.710938 7.234375 -6.796875 L 6.03125 -5.484375 C 5.601562 -6.171875 5.007812 -6.515625 4.25 -6.515625 C 3.675781 -6.515625 3.191406 -6.269531 2.796875 -5.78125 C 2.398438 -5.289062 2.203125 -4.703125 2.203125 -4.015625 C 2.203125 -3.328125 2.398438 -2.738281 2.796875 -2.25 C 3.191406 -1.769531 3.675781 -1.53125 4.25 -1.53125 C 4.707031 -1.53125 5.109375 -1.671875 5.453125 -1.953125 C 5.804688 -2.242188 5.984375 -2.617188 5.984375 -3.078125 L 4.140625 -3.078125 L 4.140625 -4.5 Z M 7.84375 -4.5 "/></g></g></g><g fill="#000000" fill-opacity="1"><g transform="translate(186.86705, 320.529601)"><g/></g></g><g fill="#000000" fill-opacity="1"><g transform="translate(193.628297, 320.529601)"><g><path d="M 3.546875 -8.171875 C 3.984375 -8.171875 4.40625 -8.109375 4.8125 -7.984375 C 5.226562 -7.859375 5.539062 -7.734375 5.75 -7.609375 L 6.03125 -7.421875 L 5.296875 -5.953125 C 5.234375 -5.992188 5.148438 -6.046875 5.046875 -6.109375 C 4.941406 -6.171875 4.75 -6.253906 4.46875 -6.359375 C 4.1875 -6.460938 3.921875 -6.515625 3.671875 -6.515625 C 3.367188 -6.515625 3.132812 -6.445312 2.96875 -6.3125 C 2.800781 -6.1875 2.71875 -6.015625 2.71875 -5.796875 C 2.71875 -5.679688 2.753906 -5.578125 2.828125 -5.484375 C 2.910156 -5.390625 3.046875 -5.285156 3.234375 -5.171875 C 3.421875 -5.066406 3.582031 -4.984375 3.71875 -4.921875 C 3.863281 -4.859375 4.085938 -4.765625 4.390625 -4.640625 C 4.910156 -4.410156 5.351562 -4.101562 5.71875 -3.71875 C 6.082031 -3.34375 6.265625 -2.914062 6.265625 -2.4375 C 6.265625 -1.976562 6.179688 -1.578125 6.015625 -1.234375 C 5.847656 -0.890625 5.617188 -0.617188 5.328125 -0.421875 C 5.046875 -0.234375 4.726562 -0.09375 4.375 0 C 4.03125 0.09375 3.648438 0.140625 3.234375 0.140625 C 2.890625 0.140625 2.546875 0.101562 2.203125 0.03125 C 1.867188 -0.03125 1.585938 -0.113281 1.359375 -0.21875 C 1.128906 -0.332031 0.925781 -0.441406 0.75 -0.546875 C 0.570312 -0.648438 0.4375 -0.738281 0.34375 -0.8125 L 0.21875 -0.921875 L 1.140625 -2.453125 C 1.210938 -2.390625 1.316406 -2.304688 1.453125 -2.203125 C 1.597656 -2.097656 1.84375 -1.960938 2.1875 -1.796875 C 2.53125 -1.628906 2.835938 -1.546875 3.109375 -1.546875 C 3.878906 -1.546875 4.265625 -1.8125 4.265625 -2.34375 C 4.265625 -2.445312 4.234375 -2.546875 4.171875 -2.640625 C 4.117188 -2.734375 4.019531 -2.828125 3.875 -2.921875 C 3.738281 -3.015625 3.617188 -3.085938 3.515625 -3.140625 C 3.410156 -3.203125 3.234375 -3.289062 2.984375 -3.40625 C 2.742188 -3.519531 2.566406 -3.601562 2.453125 -3.65625 C 1.960938 -3.894531 1.582031 -4.191406 1.3125 -4.546875 C 1.050781 -4.910156 0.921875 -5.300781 0.921875 -5.71875 C 0.921875 -6.4375 1.1875 -7.023438 1.71875 -7.484375 C 2.25 -7.941406 2.859375 -8.171875 3.546875 -8.171875 Z M 3.546875 -8.171875 "/></g></g></g><g fill="#000000" fill-opacity="1"><g transform="translate(204.276019, 320.529601)"><g><path d="M -0.296875 -8.03125 L 1.90625 -8.03125 L 3.578125 -5.46875 L 5.25 -8.03125 L 7.453125 -8.03125 L 4.5 -3.609375 L 4.5 0 L 2.671875 0 L 2.671875 -3.609375 Z M -0.296875 -8.03125 "/></g></g></g><g fill="#000000" fill-opacity="1"><g transform="translate(215.547126, 320.529601)"><g><path d="M 3.546875 -8.171875 C 3.984375 -8.171875 4.40625 -8.109375 4.8125 -7.984375 C 5.226562 -7.859375 5.539062 -7.734375 5.75 -7.609375 L 6.03125 -7.421875 L 5.296875 -5.953125 C 5.234375 -5.992188 5.148438 -6.046875 5.046875 -6.109375 C 4.941406 -6.171875 4.75 -6.253906 4.46875 -6.359375 C 4.1875 -6.460938 3.921875 -6.515625 3.671875 -6.515625 C 3.367188 -6.515625 3.132812 -6.445312 2.96875 -6.3125 C 2.800781 -6.1875 2.71875 -6.015625 2.71875 -5.796875 C 2.71875 -5.679688 2.753906 -5.578125 2.828125 -5.484375 C 2.910156 -5.390625 3.046875 -5.285156 3.234375 -5.171875 C 3.421875 -5.066406 3.582031 -4.984375 3.71875 -4.921875 C 3.863281 -4.859375 4.085938 -4.765625 4.390625 -4.640625 C 4.910156 -4.410156 5.351562 -4.101562 5.71875 -3.71875 C 6.082031 -3.34375 6.265625 -2.914062 6.265625 -2.4375 C 6.265625 -1.976562 6.179688 -1.578125 6.015625 -1.234375 C 5.847656 -0.890625 5.617188 -0.617188 5.328125 -0.421875 C 5.046875 -0.234375 4.726562 -0.09375 4.375 0 C 4.03125 0.09375 3.648438 0.140625 3.234375 0.140625 C 2.890625 0.140625 2.546875 0.101562 2.203125 0.03125 C 1.867188 -0.03125 1.585938 -0.113281 1.359375 -0.21875 C 1.128906 -0.332031 0.925781 -0.441406 0.75 -0.546875 C 0.570312 -0.648438 0.4375 -0.738281 0.34375 -0.8125 L 0.21875 -0.921875 L 1.140625 -2.453125 C 1.210938 -2.390625 1.316406 -2.304688 1.453125 -2.203125 C 1.597656 -2.097656 1.84375 -1.960938 2.1875 -1.796875 C 2.53125 -1.628906 2.835938 -1.546875 3.109375 -1.546875 C 3.878906 -1.546875 4.265625 -1.8125 4.265625 -2.34375 C 4.265625 -2.445312 4.234375 -2.546875 4.171875 -2.640625 C 4.117188 -2.734375 4.019531 -2.828125 3.875 -2.921875 C 3.738281 -3.015625 3.617188 -3.085938 3.515625 -3.140625 C 3.410156 -3.203125 3.234375 -3.289062 2.984375 -3.40625 C 2.742188 -3.519531 2.566406 -3.601562 2.453125 -3.65625 C 1.960938 -3.894531 1.582031 -4.191406 1.3125 -4.546875 C 1.050781 -4.910156 0.921875 -5.300781 0.921875 -5.71875 C 0.921875 -6.4375 1.1875 -7.023438 1.71875 -7.484375 C 2.25 -7.941406 2.859375 -8.171875 3.546875 -8.171875 Z M 3.546875 -8.171875 "/></g></g></g><g fill="#000000" fill-opacity="1"><g transform="translate(226.194848, 320.529601)"><g><path d="M 0.078125 -6.421875 L 0.078125 -8.03125 L 5.71875 -8.03125 L 5.71875 -6.421875 L 3.8125 -6.421875 L 3.8125 0 L 1.984375 0 L 1.984375 -6.421875 Z M 0.078125 -6.421875 "/></g></g></g><g fill="#000000" fill-opacity="1"><g transform="translate(236.102287, 320.529601)"><g><path d="M 5.171875 -8.03125 L 5.171875 -6.421875 L 2.421875 -6.421875 L 2.421875 -4.828125 L 5.0625 -4.828125 L 5.0625 -3.21875 L 2.421875 -3.21875 L 2.421875 -1.609375 L 5.171875 -1.609375 L 5.171875 0 L 0.578125 0 L 0.578125 -8.03125 Z M 5.171875 -8.03125 "/></g></g></g><g fill="#000000" fill-opacity="1"><g transform="translate(245.853873, 320.529601)"><g><path d="M 7.21875 0 L 6.84375 -4.765625 L 6.796875 -4.765625 L 5.15625 -0.046875 L 4.0625 -0.046875 L 2.421875 -4.765625 L 2.359375 -4.765625 L 1.984375 0 L 0.15625 0 L 0.875 -8.03125 L 2.828125 -8.03125 L 4.609375 -3.390625 L 6.390625 -8.03125 L 8.328125 -8.03125 L 9.046875 0 Z M 7.21875 0 "/></g></g></g><g fill="#000000" fill-opacity="1"><g transform="translate(259.170486, 320.529601)"><g/></g></g><g fill="#000000" fill-opacity="1"><g transform="translate(265.931724, 320.529601)"><g><path d="M 3.546875 -8.171875 C 3.984375 -8.171875 4.40625 -8.109375 4.8125 -7.984375 C 5.226562 -7.859375 5.539062 -7.734375 5.75 -7.609375 L 6.03125 -7.421875 L 5.296875 -5.953125 C 5.234375 -5.992188 5.148438 -6.046875 5.046875 -6.109375 C 4.941406 -6.171875 4.75 -6.253906 4.46875 -6.359375 C 4.1875 -6.460938 3.921875 -6.515625 3.671875 -6.515625 C 3.367188 -6.515625 3.132812 -6.445312 2.96875 -6.3125 C 2.800781 -6.1875 2.71875 -6.015625 2.71875 -5.796875 C 2.71875 -5.679688 2.753906 -5.578125 2.828125 -5.484375 C 2.910156 -5.390625 3.046875 -5.285156 3.234375 -5.171875 C 3.421875 -5.066406 3.582031 -4.984375 3.71875 -4.921875 C 3.863281 -4.859375 4.085938 -4.765625 4.390625 -4.640625 C 4.910156 -4.410156 5.351562 -4.101562 5.71875 -3.71875 C 6.082031 -3.34375 6.265625 -2.914062 6.265625 -2.4375 C 6.265625 -1.976562 6.179688 -1.578125 6.015625 -1.234375 C 5.847656 -0.890625 5.617188 -0.617188 5.328125 -0.421875 C 5.046875 -0.234375 4.726562 -0.09375 4.375 0 C 4.03125 0.09375 3.648438 0.140625 3.234375 0.140625 C 2.890625 0.140625 2.546875 0.101562 2.203125 0.03125 C 1.867188 -0.03125 1.585938 -0.113281 1.359375 -0.21875 C 1.128906 -0.332031 0.925781 -0.441406 0.75 -0.546875 C 0.570312 -0.648438 0.4375 -0.738281 0.34375 -0.8125 L 0.21875 -0.921875 L 1.140625 -2.453125 C 1.210938 -2.390625 1.316406 -2.304688 1.453125 -2.203125 C 1.597656 -2.097656 1.84375 -1.960938 2.1875 -1.796875 C 2.53125 -1.628906 2.835938 -1.546875 3.109375 -1.546875 C 3.878906 -1.546875 4.265625 -1.8125 4.265625 -2.34375 C 4.265625 -2.445312 4.234375 -2.546875 4.171875 -2.640625 C 4.117188 -2.734375 4.019531 -2.828125 3.875 -2.921875 C 3.738281 -3.015625 3.617188 -3.085938 3.515625 -3.140625 C 3.410156 -3.203125 3.234375 -3.289062 2.984375 -3.40625 C 2.742188 -3.519531 2.566406 -3.601562 2.453125 -3.65625 C 1.960938 -3.894531 1.582031 -4.191406 1.3125 -4.546875 C 1.050781 -4.910156 0.921875 -5.300781 0.921875 -5.71875 C 0.921875 -6.4375 1.1875 -7.023438 1.71875 -7.484375 C 2.25 -7.941406 2.859375 -8.171875 3.546875 -8.171875 Z M 3.546875 -8.171875 "/></g></g></g><g fill="#000000" fill-opacity="1"><g transform="translate(276.579446, 320.529601)"><g><path d="M 5.171875 -8.03125 L 5.171875 -6.421875 L 2.421875 -6.421875 L 2.421875 -4.828125 L 5.0625 -4.828125 L 5.0625 -3.21875 L 2.421875 -3.21875 L 2.421875 -1.609375 L 5.171875 -1.609375 L 5.171875 0 L 0.578125 0 L 0.578125 -8.03125 Z M 5.171875 -8.03125 "/></g></g></g><g fill="#000000" fill-opacity="1"><g transform="translate(286.331032, 320.529601)"><g><path d="M 0.578125 -8.03125 L 3.453125 -8.03125 C 4.222656 -8.03125 4.851562 -7.820312 5.34375 -7.40625 C 5.832031 -7 6.078125 -6.410156 6.078125 -5.640625 C 6.078125 -5.054688 5.925781 -4.5625 5.625 -4.15625 C 5.332031 -3.757812 4.929688 -3.476562 4.421875 -3.3125 L 7.1875 0 L 4.875 0 L 2.421875 -3.171875 L 2.421875 0 L 0.578125 0 Z M 2.421875 -4.46875 L 2.625 -4.46875 C 2.789062 -4.46875 2.929688 -4.46875 3.046875 -4.46875 C 3.171875 -4.476562 3.304688 -4.503906 3.453125 -4.546875 C 3.597656 -4.585938 3.71875 -4.640625 3.8125 -4.703125 C 3.90625 -4.773438 3.984375 -4.878906 4.046875 -5.015625 C 4.109375 -5.160156 4.140625 -5.328125 4.140625 -5.515625 C 4.140625 -5.710938 4.109375 -5.878906 4.046875 -6.015625 C 3.984375 -6.148438 3.90625 -6.253906 3.8125 -6.328125 C 3.71875 -6.398438 3.597656 -6.453125 3.453125 -6.484375 C 3.304688 -6.523438 3.171875 -6.550781 3.046875 -6.5625 C 2.929688 -6.570312 2.789062 -6.578125 2.625 -6.578125 L 2.421875 -6.578125 Z M 2.421875 -4.46875 "/></g></g></g><g fill="#000000" fill-opacity="1"><g transform="translate(297.407332, 320.529601)"><g><path d="M 3.09375 0 L -0.265625 -8.03125 L 1.796875 -8.03125 L 3.8125 -2.75 L 5.84375 -8.03125 L 7.90625 -8.03125 L 4.53125 0 Z M 3.09375 0 "/></g></g></g><g fill="#000000" fill-opacity="1"><g transform="translate(309.145988, 320.529601)"><g><path d="M 2.421875 -8.03125 L 2.421875 0 L 0.578125 0 L 0.578125 -8.03125 Z M 2.421875 -8.03125 "/></g></g></g><g fill="#000000" fill-opacity="1"><g transform="translate(316.248145, 320.529601)"><g><path d="M 4.859375 -1.65625 C 5.140625 -1.65625 5.410156 -1.695312 5.671875 -1.78125 C 5.929688 -1.863281 6.125 -1.945312 6.25 -2.03125 L 6.4375 -2.15625 L 7.21875 -0.59375 C 7.1875 -0.570312 7.144531 -0.546875 7.09375 -0.515625 C 7.050781 -0.484375 6.945312 -0.421875 6.78125 -0.328125 C 6.625 -0.242188 6.453125 -0.171875 6.265625 -0.109375 C 6.078125 -0.046875 5.828125 0.0078125 5.515625 0.0625 C 5.210938 0.113281 4.898438 0.140625 4.578125 0.140625 C 3.828125 0.140625 3.117188 -0.0390625 2.453125 -0.40625 C 1.785156 -0.769531 1.242188 -1.269531 0.828125 -1.90625 C 0.421875 -2.550781 0.21875 -3.25 0.21875 -4 C 0.21875 -4.5625 0.335938 -5.101562 0.578125 -5.625 C 0.816406 -6.144531 1.132812 -6.585938 1.53125 -6.953125 C 1.9375 -7.328125 2.40625 -7.625 2.9375 -7.84375 C 3.46875 -8.0625 4.015625 -8.171875 4.578125 -8.171875 C 5.097656 -8.171875 5.578125 -8.109375 6.015625 -7.984375 C 6.453125 -7.867188 6.757812 -7.75 6.9375 -7.625 L 7.21875 -7.4375 L 6.4375 -5.875 C 6.382812 -5.914062 6.3125 -5.960938 6.21875 -6.015625 C 6.132812 -6.078125 5.957031 -6.148438 5.6875 -6.234375 C 5.414062 -6.328125 5.140625 -6.375 4.859375 -6.375 C 4.421875 -6.375 4.023438 -6.300781 3.671875 -6.15625 C 3.316406 -6.019531 3.035156 -5.832031 2.828125 -5.59375 C 2.628906 -5.363281 2.472656 -5.113281 2.359375 -4.84375 C 2.253906 -4.570312 2.203125 -4.296875 2.203125 -4.015625 C 2.203125 -3.410156 2.429688 -2.863281 2.890625 -2.375 C 3.347656 -1.894531 4.003906 -1.65625 4.859375 -1.65625 Z M 4.859375 -1.65625 "/></g></g></g><g fill="#000000" fill-opacity="1"><g transform="translate(327.684846, 320.529601)"><g><path d="M 5.171875 -8.03125 L 5.171875 -6.421875 L 2.421875 -6.421875 L 2.421875 -4.828125 L 5.0625 -4.828125 L 5.0625 -3.21875 L 2.421875 -3.21875 L 2.421875 -1.609375 L 5.171875 -1.609375 L 5.171875 0 L 0.578125 0 L 0.578125 -8.03125 Z M 5.171875 -8.03125 "/></g></g></g><g fill="#000000" fill-opacity="1"><g transform="translate(337.436432, 320.529601)"><g><path d="M 3.546875 -8.171875 C 3.984375 -8.171875 4.40625 -8.109375 4.8125 -7.984375 C 5.226562 -7.859375 5.539062 -7.734375 5.75 -7.609375 L 6.03125 -7.421875 L 5.296875 -5.953125 C 5.234375 -5.992188 5.148438 -6.046875 5.046875 -6.109375 C 4.941406 -6.171875 4.75 -6.253906 4.46875 -6.359375 C 4.1875 -6.460938 3.921875 -6.515625 3.671875 -6.515625 C 3.367188 -6.515625 3.132812 -6.445312 2.96875 -6.3125 C 2.800781 -6.1875 2.71875 -6.015625 2.71875 -5.796875 C 2.71875 -5.679688 2.753906 -5.578125 2.828125 -5.484375 C 2.910156 -5.390625 3.046875 -5.285156 3.234375 -5.171875 C 3.421875 -5.066406 3.582031 -4.984375 3.71875 -4.921875 C 3.863281 -4.859375 4.085938 -4.765625 4.390625 -4.640625 C 4.910156 -4.410156 5.351562 -4.101562 5.71875 -3.71875 C 6.082031 -3.34375 6.265625 -2.914062 6.265625 -2.4375 C 6.265625 -1.976562 6.179688 -1.578125 6.015625 -1.234375 C 5.847656 -0.890625 5.617188 -0.617188 5.328125 -0.421875 C 5.046875 -0.234375 4.726562 -0.09375 4.375 0 C 4.03125 0.09375 3.648438 0.140625 3.234375 0.140625 C 2.890625 0.140625 2.546875 0.101562 2.203125 0.03125 C 1.867188 -0.03125 1.585938 -0.113281 1.359375 -0.21875 C 1.128906 -0.332031 0.925781 -0.441406 0.75 -0.546875 C 0.570312 -0.648438 0.4375 -0.738281 0.34375 -0.8125 L 0.21875 -0.921875 L 1.140625 -2.453125 C 1.210938 -2.390625 1.316406 -2.304688 1.453125 -2.203125 C 1.597656 -2.097656 1.84375 -1.960938 2.1875 -1.796875 C 2.53125 -1.628906 2.835938 -1.546875 3.109375 -1.546875 C 3.878906 -1.546875 4.265625 -1.8125 4.265625 -2.34375 C 4.265625 -2.445312 4.234375 -2.546875 4.171875 -2.640625 C 4.117188 -2.734375 4.019531 -2.828125 3.875 -2.921875 C 3.738281 -3.015625 3.617188 -3.085938 3.515625 -3.140625 C 3.410156 -3.203125 3.234375 -3.289062 2.984375 -3.40625 C 2.742188 -3.519531 2.566406 -3.601562 2.453125 -3.65625 C 1.960938 -3.894531 1.582031 -4.191406 1.3125 -4.546875 C 1.050781 -4.910156 0.921875 -5.300781 0.921875 -5.71875 C 0.921875 -6.4375 1.1875 -7.023438 1.71875 -7.484375 C 2.25 -7.941406 2.859375 -8.171875 3.546875 -8.171875 Z M 3.546875 -8.171875 "/></g></g></g></svg>