<svg xmlns="http://www.w3.org/2000/svg" xmlns:xlink="http://www.w3.org/1999/xlink" width="500" zoomAndPan="magnify" viewBox="0 0 375 374.999991" height="500" preserveAspectRatio="xMidYMid meet" version="1.0"><defs><g/><clipPath id="9534e9befa"><path d="M 17 132.421875 L 97.222656 132.421875 L 97.222656 211 L 17 211 Z M 17 132.421875 " clip-rule="nonzero"/></clipPath><clipPath id="401d393f61"><path d="M 49 197 L 65 197 L 65 212.671875 L 49 212.671875 Z M 49 197 " clip-rule="nonzero"/></clipPath><clipPath id="d626f65537"><path d="M 59 163 L 71.988281 163 L 71.988281 182 L 59 182 Z M 59 163 " clip-rule="nonzero"/></clipPath><clipPath id="e839a13173"><path d="M 42.417969 163 L 55 163 L 55 182 L 42.417969 182 Z M 42.417969 163 " clip-rule="nonzero"/></clipPath></defs><g fill="#a70000" fill-opacity="1"><g transform="translate(74.254439, 207.444675)"><g/></g></g><g fill="#a70000" fill-opacity="1"><g transform="translate(108.818378, 207.444675)"><g><path d="M 5.25 -72.15625 L 31.046875 -72.15625 C 37.984375 -72.15625 43.640625 -70.300781 48.015625 -66.59375 C 52.390625 -62.894531 54.578125 -57.609375 54.578125 -50.734375 C 54.578125 -45.421875 53.25 -40.972656 50.59375 -37.390625 C 47.945312 -33.804688 44.347656 -31.285156 39.796875 -29.828125 L 64.640625 0 L 43.734375 0 L 21.6875 -28.515625 L 21.6875 0 L 5.25 0 Z M 21.6875 -40.140625 L 23.609375 -40.140625 C 25.128906 -40.140625 26.414062 -40.171875 27.46875 -40.234375 C 28.519531 -40.296875 29.710938 -40.5 31.046875 -40.84375 C 32.390625 -41.195312 33.46875 -41.691406 34.28125 -42.328125 C 35.101562 -42.972656 35.804688 -43.90625 36.390625 -45.125 C 36.972656 -46.351562 37.265625 -47.84375 37.265625 -49.59375 C 37.265625 -51.34375 36.972656 -52.828125 36.390625 -54.046875 C 35.804688 -55.273438 35.101562 -56.207031 34.28125 -56.84375 C 33.46875 -57.488281 32.390625 -57.984375 31.046875 -58.328125 C 29.710938 -58.679688 28.519531 -58.890625 27.46875 -58.953125 C 26.414062 -59.015625 25.128906 -59.046875 23.609375 -59.046875 L 21.6875 -59.046875 Z M 21.6875 -40.140625 "/></g></g></g><g fill="#a70000" fill-opacity="1"><g transform="translate(182.110403, 207.444675)"><g><path d="M 5.25 -72.15625 L 27.640625 -72.15625 C 34.398438 -72.15625 39.789062 -70.710938 43.8125 -67.828125 C 47.84375 -64.941406 49.859375 -60.265625 49.859375 -53.796875 C 49.859375 -46.566406 46.851562 -41.40625 40.84375 -38.3125 C 51.113281 -36.5 56.25 -30.4375 56.25 -20.125 C 56.25 -14.050781 54.144531 -9.175781 49.9375 -5.5 C 45.738281 -1.832031 39.96875 0 32.625 0 L 5.25 0 Z M 21.6875 -43.90625 L 23 -43.90625 C 26.675781 -43.90625 29.414062 -44.546875 31.21875 -45.828125 C 33.03125 -47.117188 33.9375 -49.21875 33.9375 -52.125 C 33.9375 -57.03125 30.289062 -59.484375 23 -59.484375 L 21.6875 -59.484375 Z M 21.6875 -12.6875 L 26.859375 -12.6875 C 34.898438 -12.6875 38.921875 -15.367188 38.921875 -20.734375 C 38.921875 -23.941406 37.914062 -26.242188 35.90625 -27.640625 C 33.894531 -29.035156 30.878906 -29.734375 26.859375 -29.734375 L 21.6875 -29.734375 Z M 21.6875 -12.6875 "/></g></g></g><g fill="#a70000" fill-opacity="1"><g transform="translate(251.029467, 207.444675)"><g><path d="M 21.6875 -72.15625 L 21.6875 0 L 5.25 0 L 5.25 -72.15625 Z M 21.6875 -72.15625 "/></g></g></g><g fill="#a70000" fill-opacity="1"><g transform="translate(288.638092, 207.444675)"><g><path d="M 31.84375 -73.46875 C 35.75 -73.46875 39.566406 -72.898438 43.296875 -71.765625 C 47.023438 -70.628906 49.796875 -69.507812 51.609375 -68.40625 L 54.234375 -66.65625 L 47.578125 -53.53125 C 47.054688 -53.882812 46.328125 -54.335938 45.390625 -54.890625 C 44.460938 -55.441406 42.710938 -56.179688 40.140625 -57.109375 C 37.578125 -58.046875 35.1875 -58.515625 32.96875 -58.515625 C 30.226562 -58.515625 28.113281 -57.929688 26.625 -56.765625 C 25.144531 -55.597656 24.40625 -54.023438 24.40625 -52.046875 C 24.40625 -51.054688 24.753906 -50.132812 25.453125 -49.28125 C 26.148438 -48.4375 27.34375 -47.535156 29.03125 -46.578125 C 30.726562 -45.617188 32.21875 -44.847656 33.5 -44.265625 C 34.78125 -43.679688 36.765625 -42.804688 39.453125 -41.640625 C 44.117188 -39.648438 48.097656 -36.945312 51.390625 -33.53125 C 54.679688 -30.125 56.328125 -26.265625 56.328125 -21.953125 C 56.328125 -17.816406 55.582031 -14.203125 54.09375 -11.109375 C 52.613281 -8.015625 50.570312 -5.59375 47.96875 -3.84375 C 45.375 -2.09375 42.503906 -0.796875 39.359375 0.046875 C 36.210938 0.890625 32.800781 1.3125 29.125 1.3125 C 25.976562 1.3125 22.890625 0.988281 19.859375 0.34375 C 16.828125 -0.289062 14.289062 -1.085938 12.25 -2.046875 C 10.207031 -3.015625 8.367188 -3.960938 6.734375 -4.890625 C 5.097656 -5.828125 3.90625 -6.617188 3.15625 -7.265625 L 2.015625 -8.21875 L 10.234375 -22.046875 C 10.929688 -21.460938 11.890625 -20.71875 13.109375 -19.8125 C 14.335938 -18.90625 16.507812 -17.691406 19.625 -16.171875 C 22.75 -14.660156 25.507812 -13.90625 27.90625 -13.90625 C 34.84375 -13.90625 38.3125 -16.269531 38.3125 -21 C 38.3125 -21.988281 38.0625 -22.90625 37.5625 -23.75 C 37.070312 -24.59375 36.195312 -25.4375 34.9375 -26.28125 C 33.6875 -27.125 32.578125 -27.796875 31.609375 -28.296875 C 30.648438 -28.796875 29.078125 -29.550781 26.890625 -30.5625 C 24.703125 -31.582031 23.085938 -32.359375 22.046875 -32.890625 C 17.671875 -35.046875 14.285156 -37.738281 11.890625 -40.96875 C 9.503906 -44.207031 8.3125 -47.695312 8.3125 -51.4375 C 8.3125 -57.90625 10.703125 -63.191406 15.484375 -67.296875 C 20.265625 -71.410156 25.71875 -73.46875 31.84375 -73.46875 Z M 31.84375 -73.46875 "/></g></g></g><g clip-path="url(#9534e9befa)"><path fill="#000000" d="M 17.007812 172.5 C 17.007812 189.78125 27.988281 204.503906 43.320312 210.171875 C 42.75 208.601562 42.421875 206.914062 42.421875 205.148438 C 42.421875 201.285156 43.925781 197.773438 46.363281 195.136719 C 37.925781 191.082031 32.070312 182.472656 32.070312 172.5 C 32.070312 158.648438 43.34375 147.378906 57.195312 147.378906 C 71.050781 147.378906 82.320312 158.648438 82.320312 172.5 C 82.320312 182.472656 76.46875 191.082031 68.03125 195.136719 C 70.46875 197.773438 71.972656 201.285156 71.972656 205.148438 C 71.972656 206.914062 71.644531 208.601562 71.078125 210.171875 C 86.40625 204.503906 97.386719 189.78125 97.386719 172.5 C 97.386719 150.339844 79.359375 132.3125 57.195312 132.3125 C 35.035156 132.3125 17.007812 150.339844 17.007812 172.5 Z M 17.007812 172.5 " fill-opacity="1" fill-rule="nonzero"/></g><g clip-path="url(#401d393f61)"><path fill="#a70000" d="M 64.722656 205.148438 C 64.722656 209.296875 61.34375 212.671875 57.195312 212.671875 C 53.050781 212.671875 49.675781 209.296875 49.675781 205.148438 C 49.675781 201 53.050781 197.628906 57.195312 197.628906 C 61.34375 197.628906 64.722656 201 64.722656 205.148438 Z M 64.722656 205.148438 " fill-opacity="1" fill-rule="nonzero"/></g><g clip-path="url(#d626f65537)"><path fill="#a70000" d="M 71.988281 172.351562 L 63.542969 180.882812 C 61.910156 182.53125 58.558594 179.480469 60.523438 177.5625 L 65.867188 172.351562 L 60.351562 167.222656 C 58.671875 165.660156 61.785156 162.457031 63.457031 164.078125 Z M 71.988281 172.351562 " fill-opacity="1" fill-rule="nonzero"/></g><g clip-path="url(#e839a13173)"><path fill="#a70000" d="M 42.417969 172.636719 L 50.863281 164.105469 C 52.496094 162.457031 55.847656 165.503906 53.878906 167.421875 L 48.535156 172.636719 L 54.054688 177.765625 C 55.734375 179.328125 52.621094 182.53125 50.949219 180.910156 Z M 42.417969 172.636719 " fill-opacity="1" fill-rule="nonzero"/></g><g fill="#000000" fill-opacity="1"><g transform="translate(46.898825, 231.920025)"><g><path d="M 4.953125 -7.625 L 4.953125 -6.09375 L 2.296875 -6.09375 L 2.296875 -4.578125 L 4.75 -4.578125 L 4.75 -3.0625 L 2.296875 -3.0625 L 2.296875 0 L 0.546875 0 L 0.546875 -7.625 Z M 4.953125 -7.625 "/></g></g></g><g fill="#000000" fill-opacity="1"><g transform="translate(56.026077, 231.920025)"><g><path d="M 0.21875 -3.8125 C 0.21875 -4.914062 0.59375 -5.847656 1.34375 -6.609375 C 2.09375 -7.367188 2.992188 -7.75 4.046875 -7.75 C 5.117188 -7.75 6.023438 -7.367188 6.765625 -6.609375 C 7.515625 -5.847656 7.890625 -4.914062 7.890625 -3.8125 C 7.890625 -2.695312 7.519531 -1.757812 6.78125 -1 C 6.050781 -0.238281 5.140625 0.140625 4.046875 0.140625 C 2.929688 0.140625 2.015625 -0.234375 1.296875 -0.984375 C 0.578125 -1.742188 0.21875 -2.6875 0.21875 -3.8125 Z M 2.09375 -3.8125 C 2.09375 -3.414062 2.148438 -3.050781 2.265625 -2.71875 C 2.390625 -2.382812 2.601562 -2.101562 2.90625 -1.875 C 3.21875 -1.65625 3.597656 -1.546875 4.046875 -1.546875 C 4.703125 -1.546875 5.191406 -1.765625 5.515625 -2.203125 C 5.847656 -2.648438 6.015625 -3.1875 6.015625 -3.8125 C 6.015625 -4.4375 5.84375 -4.96875 5.5 -5.40625 C 5.164062 -5.851562 4.679688 -6.078125 4.046875 -6.078125 C 3.421875 -6.078125 2.9375 -5.851562 2.59375 -5.40625 C 2.257812 -4.96875 2.09375 -4.4375 2.09375 -3.8125 Z M 2.09375 -3.8125 "/></g></g></g><g fill="#000000" fill-opacity="1"><g transform="translate(68.015966, 231.920025)"><g><path d="M 0.546875 -7.625 L 3.28125 -7.625 C 4.007812 -7.625 4.601562 -7.425781 5.0625 -7.03125 C 5.53125 -6.644531 5.765625 -6.085938 5.765625 -5.359375 C 5.765625 -4.796875 5.625 -4.320312 5.34375 -3.9375 C 5.0625 -3.5625 4.679688 -3.300781 4.203125 -3.15625 L 6.828125 0 L 4.625 0 L 2.296875 -3.015625 L 2.296875 0 L 0.546875 0 Z M 2.296875 -4.234375 L 2.5 -4.234375 C 2.65625 -4.234375 2.785156 -4.234375 2.890625 -4.234375 C 3.003906 -4.242188 3.128906 -4.269531 3.265625 -4.3125 C 3.410156 -4.351562 3.523438 -4.40625 3.609375 -4.46875 C 3.703125 -4.539062 3.78125 -4.640625 3.84375 -4.765625 C 3.90625 -4.890625 3.9375 -5.046875 3.9375 -5.234375 C 3.9375 -5.421875 3.90625 -5.578125 3.84375 -5.703125 C 3.78125 -5.835938 3.703125 -5.9375 3.609375 -6 C 3.523438 -6.070312 3.410156 -6.125 3.265625 -6.15625 C 3.128906 -6.195312 3.003906 -6.21875 2.890625 -6.21875 C 2.785156 -6.226562 2.65625 -6.234375 2.5 -6.234375 L 2.296875 -6.234375 Z M 2.296875 -4.234375 "/></g></g></g><g fill="#000000" fill-opacity="1"><g transform="translate(78.519129, 231.920025)"><g/></g></g><g fill="#000000" fill-opacity="1"><g transform="translate(84.931488, 231.920025)"><g><path d="M 0.21875 -3.8125 C 0.21875 -4.914062 0.59375 -5.847656 1.34375 -6.609375 C 2.09375 -7.367188 2.992188 -7.75 4.046875 -7.75 C 5.117188 -7.75 6.023438 -7.367188 6.765625 -6.609375 C 7.515625 -5.847656 7.890625 -4.914062 7.890625 -3.8125 C 7.890625 -2.695312 7.519531 -1.757812 6.78125 -1 C 6.050781 -0.238281 5.140625 0.140625 4.046875 0.140625 C 2.929688 0.140625 2.015625 -0.234375 1.296875 -0.984375 C 0.578125 -1.742188 0.21875 -2.6875 0.21875 -3.8125 Z M 2.09375 -3.8125 C 2.09375 -3.414062 2.148438 -3.050781 2.265625 -2.71875 C 2.390625 -2.382812 2.601562 -2.101562 2.90625 -1.875 C 3.21875 -1.65625 3.597656 -1.546875 4.046875 -1.546875 C 4.703125 -1.546875 5.191406 -1.765625 5.515625 -2.203125 C 5.847656 -2.648438 6.015625 -3.1875 6.015625 -3.8125 C 6.015625 -4.4375 5.84375 -4.96875 5.5 -5.40625 C 5.164062 -5.851562 4.679688 -6.078125 4.046875 -6.078125 C 3.421875 -6.078125 2.9375 -5.851562 2.59375 -5.40625 C 2.257812 -4.96875 2.09375 -4.4375 2.09375 -3.8125 Z M 2.09375 -3.8125 "/></g></g></g><g fill="#000000" fill-opacity="1"><g transform="translate(96.921377, 231.920025)"><g><path d="M 0.546875 -7.625 L 3.328125 -7.625 C 4.109375 -7.625 4.738281 -7.421875 5.21875 -7.015625 C 5.695312 -6.617188 5.9375 -6.035156 5.9375 -5.265625 C 5.9375 -4.503906 5.691406 -3.90625 5.203125 -3.46875 C 4.722656 -3.039062 4.097656 -2.828125 3.328125 -2.828125 L 2.296875 -2.828125 L 2.296875 0 L 0.546875 0 Z M 2.296875 -4.203125 L 2.78125 -4.203125 C 3.164062 -4.203125 3.484375 -4.28125 3.734375 -4.4375 C 3.984375 -4.601562 4.109375 -4.863281 4.109375 -5.21875 C 4.109375 -5.582031 3.984375 -5.84375 3.734375 -6 C 3.484375 -6.15625 3.164062 -6.234375 2.78125 -6.234375 L 2.296875 -6.234375 Z M 2.296875 -4.203125 "/></g></g></g><g fill="#000000" fill-opacity="1"><g transform="translate(106.962828, 231.920025)"><g><path d="M 4.90625 -7.625 L 4.90625 -6.09375 L 2.296875 -6.09375 L 2.296875 -4.578125 L 4.796875 -4.578125 L 4.796875 -3.0625 L 2.296875 -3.0625 L 2.296875 -1.53125 L 4.90625 -1.53125 L 4.90625 0 L 0.546875 0 L 0.546875 -7.625 Z M 4.90625 -7.625 "/></g></g></g><g fill="#000000" fill-opacity="1"><g transform="translate(116.210129, 231.920025)"><g><path d="M 0.546875 -7.625 L 3.28125 -7.625 C 4.007812 -7.625 4.601562 -7.425781 5.0625 -7.03125 C 5.53125 -6.644531 5.765625 -6.085938 5.765625 -5.359375 C 5.765625 -4.796875 5.625 -4.320312 5.34375 -3.9375 C 5.0625 -3.5625 4.679688 -3.300781 4.203125 -3.15625 L 6.828125 0 L 4.625 0 L 2.296875 -3.015625 L 2.296875 0 L 0.546875 0 Z M 2.296875 -4.234375 L 2.5 -4.234375 C 2.65625 -4.234375 2.785156 -4.234375 2.890625 -4.234375 C 3.003906 -4.242188 3.128906 -4.269531 3.265625 -4.3125 C 3.410156 -4.351562 3.523438 -4.40625 3.609375 -4.46875 C 3.703125 -4.539062 3.78125 -4.640625 3.84375 -4.765625 C 3.90625 -4.890625 3.9375 -5.046875 3.9375 -5.234375 C 3.9375 -5.421875 3.90625 -5.578125 3.84375 -5.703125 C 3.78125 -5.835938 3.703125 -5.9375 3.609375 -6 C 3.523438 -6.070312 3.410156 -6.125 3.265625 -6.15625 C 3.128906 -6.195312 3.003906 -6.21875 2.890625 -6.21875 C 2.785156 -6.226562 2.65625 -6.234375 2.5 -6.234375 L 2.296875 -6.234375 Z M 2.296875 -4.234375 "/></g></g></g><g fill="#000000" fill-opacity="1"><g transform="translate(126.713292, 231.920025)"><g><path d="M 4.421875 -7.625 L 7.5 0 L 5.640625 0 L 5.0625 -1.53125 L 2.171875 -1.53125 L 1.609375 0 L -0.265625 0 L 2.8125 -7.625 Z M 4.484375 -3.046875 L 3.625 -5.265625 L 3.609375 -5.265625 L 2.765625 -3.046875 Z M 4.484375 -3.046875 "/></g></g></g><g fill="#000000" fill-opacity="1"><g transform="translate(137.844393, 231.920025)"><g><path d="M 0.078125 -6.09375 L 0.078125 -7.625 L 5.4375 -7.625 L 5.4375 -6.09375 L 3.625 -6.09375 L 3.625 0 L 1.890625 0 L 1.890625 -6.09375 Z M 0.078125 -6.09375 "/></g></g></g><g fill="#000000" fill-opacity="1"><g transform="translate(147.239437, 231.920025)"><g><path d="M 2.296875 -7.625 L 2.296875 0 L 0.546875 0 L 0.546875 -7.625 Z M 2.296875 -7.625 "/></g></g></g><g fill="#000000" fill-opacity="1"><g transform="translate(153.975006, 231.920025)"><g><path d="M 2.296875 -4.734375 L 2.296875 0 L 0.546875 0 L 0.546875 -7.625 L 2.296875 -7.625 L 5.3125 -2.890625 L 5.34375 -2.890625 L 5.34375 -7.625 L 7.078125 -7.625 L 7.078125 0 L 5.34375 0 L 2.3125 -4.734375 Z M 2.296875 -4.734375 "/></g></g></g><g fill="#000000" fill-opacity="1"><g transform="translate(165.493941, 231.920025)"><g><path d="M 7.4375 -4.265625 L 7.4375 -2.609375 C 7.238281 -1.703125 6.804688 -1.015625 6.140625 -0.546875 C 5.484375 -0.0859375 4.742188 0.140625 3.921875 0.140625 C 2.890625 0.140625 2.015625 -0.242188 1.296875 -1.015625 C 0.578125 -1.785156 0.21875 -2.710938 0.21875 -3.796875 C 0.21875 -4.910156 0.570312 -5.847656 1.28125 -6.609375 C 1.988281 -7.367188 2.867188 -7.75 3.921875 -7.75 C 5.160156 -7.75 6.140625 -7.316406 6.859375 -6.453125 L 5.71875 -5.203125 C 5.3125 -5.859375 4.75 -6.1875 4.03125 -6.1875 C 3.488281 -6.1875 3.03125 -5.953125 2.65625 -5.484375 C 2.28125 -5.023438 2.09375 -4.460938 2.09375 -3.796875 C 2.09375 -3.148438 2.28125 -2.597656 2.65625 -2.140625 C 3.03125 -1.679688 3.488281 -1.453125 4.03125 -1.453125 C 4.46875 -1.453125 4.847656 -1.585938 5.171875 -1.859375 C 5.503906 -2.128906 5.671875 -2.484375 5.671875 -2.921875 L 3.921875 -2.921875 L 3.921875 -4.265625 Z M 7.4375 -4.265625 "/></g></g></g><g fill="#000000" fill-opacity="1"><g transform="translate(177.040571, 231.920025)"><g/></g></g><g fill="#000000" fill-opacity="1"><g transform="translate(183.452924, 231.920025)"><g><path d="M 3.359375 -7.75 C 3.773438 -7.75 4.175781 -7.6875 4.5625 -7.5625 C 4.957031 -7.445312 5.253906 -7.332031 5.453125 -7.21875 L 5.71875 -7.03125 L 5.03125 -5.65625 C 4.96875 -5.6875 4.882812 -5.726562 4.78125 -5.78125 C 4.6875 -5.84375 4.503906 -5.921875 4.234375 -6.015625 C 3.960938 -6.117188 3.710938 -6.171875 3.484375 -6.171875 C 3.191406 -6.171875 2.96875 -6.109375 2.8125 -5.984375 C 2.65625 -5.867188 2.578125 -5.707031 2.578125 -5.5 C 2.578125 -5.394531 2.613281 -5.296875 2.6875 -5.203125 C 2.757812 -5.109375 2.882812 -5.007812 3.0625 -4.90625 C 3.238281 -4.8125 3.394531 -4.734375 3.53125 -4.671875 C 3.664062 -4.609375 3.878906 -4.515625 4.171875 -4.390625 C 4.660156 -4.179688 5.078125 -3.894531 5.421875 -3.53125 C 5.773438 -3.175781 5.953125 -2.769531 5.953125 -2.3125 C 5.953125 -1.875 5.867188 -1.492188 5.703125 -1.171875 C 5.546875 -0.847656 5.332031 -0.59375 5.0625 -0.40625 C 4.789062 -0.21875 4.488281 -0.0820312 4.15625 0 C 3.820312 0.09375 3.460938 0.140625 3.078125 0.140625 C 2.742188 0.140625 2.414062 0.101562 2.09375 0.03125 C 1.769531 -0.03125 1.5 -0.113281 1.28125 -0.21875 C 1.070312 -0.320312 0.878906 -0.421875 0.703125 -0.515625 C 0.535156 -0.617188 0.410156 -0.703125 0.328125 -0.765625 L 0.21875 -0.875 L 1.078125 -2.328125 C 1.148438 -2.265625 1.25 -2.1875 1.375 -2.09375 C 1.507812 -2 1.738281 -1.867188 2.0625 -1.703125 C 2.394531 -1.546875 2.691406 -1.46875 2.953125 -1.46875 C 3.679688 -1.46875 4.046875 -1.71875 4.046875 -2.21875 C 4.046875 -2.320312 4.019531 -2.414062 3.96875 -2.5 C 3.914062 -2.59375 3.820312 -2.679688 3.6875 -2.765625 C 3.550781 -2.859375 3.429688 -2.929688 3.328125 -2.984375 C 3.234375 -3.035156 3.070312 -3.113281 2.84375 -3.21875 C 2.613281 -3.332031 2.441406 -3.414062 2.328125 -3.46875 C 1.867188 -3.695312 1.507812 -3.984375 1.25 -4.328125 C 1 -4.671875 0.875 -5.039062 0.875 -5.4375 C 0.875 -6.113281 1.125 -6.664062 1.625 -7.09375 C 2.132812 -7.53125 2.710938 -7.75 3.359375 -7.75 Z M 3.359375 -7.75 "/></g></g></g><g fill="#000000" fill-opacity="1"><g transform="translate(193.549771, 231.920025)"><g><path d="M -0.28125 -7.625 L 1.8125 -7.625 L 3.390625 -5.1875 L 4.984375 -7.625 L 7.078125 -7.625 L 4.265625 -3.421875 L 4.265625 0 L 2.53125 0 L 2.53125 -3.421875 Z M -0.28125 -7.625 "/></g></g></g><g fill="#000000" fill-opacity="1"><g transform="translate(204.237614, 231.920025)"><g><path d="M 3.359375 -7.75 C 3.773438 -7.75 4.175781 -7.6875 4.5625 -7.5625 C 4.957031 -7.445312 5.253906 -7.332031 5.453125 -7.21875 L 5.71875 -7.03125 L 5.03125 -5.65625 C 4.96875 -5.6875 4.882812 -5.726562 4.78125 -5.78125 C 4.6875 -5.84375 4.503906 -5.921875 4.234375 -6.015625 C 3.960938 -6.117188 3.710938 -6.171875 3.484375 -6.171875 C 3.191406 -6.171875 2.96875 -6.109375 2.8125 -5.984375 C 2.65625 -5.867188 2.578125 -5.707031 2.578125 -5.5 C 2.578125 -5.394531 2.613281 -5.296875 2.6875 -5.203125 C 2.757812 -5.109375 2.882812 -5.007812 3.0625 -4.90625 C 3.238281 -4.8125 3.394531 -4.734375 3.53125 -4.671875 C 3.664062 -4.609375 3.878906 -4.515625 4.171875 -4.390625 C 4.660156 -4.179688 5.078125 -3.894531 5.421875 -3.53125 C 5.773438 -3.175781 5.953125 -2.769531 5.953125 -2.3125 C 5.953125 -1.875 5.867188 -1.492188 5.703125 -1.171875 C 5.546875 -0.847656 5.332031 -0.59375 5.0625 -0.40625 C 4.789062 -0.21875 4.488281 -0.0820312 4.15625 0 C 3.820312 0.09375 3.460938 0.140625 3.078125 0.140625 C 2.742188 0.140625 2.414062 0.101562 2.09375 0.03125 C 1.769531 -0.03125 1.5 -0.113281 1.28125 -0.21875 C 1.070312 -0.320312 0.878906 -0.421875 0.703125 -0.515625 C 0.535156 -0.617188 0.410156 -0.703125 0.328125 -0.765625 L 0.21875 -0.875 L 1.078125 -2.328125 C 1.148438 -2.265625 1.25 -2.1875 1.375 -2.09375 C 1.507812 -2 1.738281 -1.867188 2.0625 -1.703125 C 2.394531 -1.546875 2.691406 -1.46875 2.953125 -1.46875 C 3.679688 -1.46875 4.046875 -1.71875 4.046875 -2.21875 C 4.046875 -2.320312 4.019531 -2.414062 3.96875 -2.5 C 3.914062 -2.59375 3.820312 -2.679688 3.6875 -2.765625 C 3.550781 -2.859375 3.429688 -2.929688 3.328125 -2.984375 C 3.234375 -3.035156 3.070312 -3.113281 2.84375 -3.21875 C 2.613281 -3.332031 2.441406 -3.414062 2.328125 -3.46875 C 1.867188 -3.695312 1.507812 -3.984375 1.25 -4.328125 C 1 -4.671875 0.875 -5.039062 0.875 -5.4375 C 0.875 -6.113281 1.125 -6.664062 1.625 -7.09375 C 2.132812 -7.53125 2.710938 -7.75 3.359375 -7.75 Z M 3.359375 -7.75 "/></g></g></g><g fill="#000000" fill-opacity="1"><g transform="translate(214.334461, 231.920025)"><g><path d="M 0.078125 -6.09375 L 0.078125 -7.625 L 5.4375 -7.625 L 5.4375 -6.09375 L 3.625 -6.09375 L 3.625 0 L 1.890625 0 L 1.890625 -6.09375 Z M 0.078125 -6.09375 "/></g></g></g><g fill="#000000" fill-opacity="1"><g transform="translate(223.72951, 231.920025)"><g><path d="M 4.90625 -7.625 L 4.90625 -6.09375 L 2.296875 -6.09375 L 2.296875 -4.578125 L 4.796875 -4.578125 L 4.796875 -3.0625 L 2.296875 -3.0625 L 2.296875 -1.53125 L 4.90625 -1.53125 L 4.90625 0 L 0.546875 0 L 0.546875 -7.625 Z M 4.90625 -7.625 "/></g></g></g><g fill="#000000" fill-opacity="1"><g transform="translate(232.976816, 231.920025)"><g><path d="M 6.859375 0 L 6.484375 -4.515625 L 6.453125 -4.515625 L 4.890625 -0.046875 L 3.84375 -0.046875 L 2.296875 -4.515625 L 2.25 -4.515625 L 1.890625 0 L 0.140625 0 L 0.828125 -7.625 L 2.671875 -7.625 L 4.375 -3.21875 L 6.0625 -7.625 L 7.90625 -7.625 L 8.59375 0 Z M 6.859375 0 "/></g></g></g><g fill="#000000" fill-opacity="1"><g transform="translate(245.60386, 231.920025)"><g/></g></g><g fill="#000000" fill-opacity="1"><g transform="translate(252.016214, 231.920025)"><g><path d="M 3.359375 -7.75 C 3.773438 -7.75 4.175781 -7.6875 4.5625 -7.5625 C 4.957031 -7.445312 5.253906 -7.332031 5.453125 -7.21875 L 5.71875 -7.03125 L 5.03125 -5.65625 C 4.96875 -5.6875 4.882812 -5.726562 4.78125 -5.78125 C 4.6875 -5.84375 4.503906 -5.921875 4.234375 -6.015625 C 3.960938 -6.117188 3.710938 -6.171875 3.484375 -6.171875 C 3.191406 -6.171875 2.96875 -6.109375 2.8125 -5.984375 C 2.65625 -5.867188 2.578125 -5.707031 2.578125 -5.5 C 2.578125 -5.394531 2.613281 -5.296875 2.6875 -5.203125 C 2.757812 -5.109375 2.882812 -5.007812 3.0625 -4.90625 C 3.238281 -4.8125 3.394531 -4.734375 3.53125 -4.671875 C 3.664062 -4.609375 3.878906 -4.515625 4.171875 -4.390625 C 4.660156 -4.179688 5.078125 -3.894531 5.421875 -3.53125 C 5.773438 -3.175781 5.953125 -2.769531 5.953125 -2.3125 C 5.953125 -1.875 5.867188 -1.492188 5.703125 -1.171875 C 5.546875 -0.847656 5.332031 -0.59375 5.0625 -0.40625 C 4.789062 -0.21875 4.488281 -0.0820312 4.15625 0 C 3.820312 0.09375 3.460938 0.140625 3.078125 0.140625 C 2.742188 0.140625 2.414062 0.101562 2.09375 0.03125 C 1.769531 -0.03125 1.5 -0.113281 1.28125 -0.21875 C 1.070312 -0.320312 0.878906 -0.421875 0.703125 -0.515625 C 0.535156 -0.617188 0.410156 -0.703125 0.328125 -0.765625 L 0.21875 -0.875 L 1.078125 -2.328125 C 1.148438 -2.265625 1.25 -2.1875 1.375 -2.09375 C 1.507812 -2 1.738281 -1.867188 2.0625 -1.703125 C 2.394531 -1.546875 2.691406 -1.46875 2.953125 -1.46875 C 3.679688 -1.46875 4.046875 -1.71875 4.046875 -2.21875 C 4.046875 -2.320312 4.019531 -2.414062 3.96875 -2.5 C 3.914062 -2.59375 3.820312 -2.679688 3.6875 -2.765625 C 3.550781 -2.859375 3.429688 -2.929688 3.328125 -2.984375 C 3.234375 -3.035156 3.070312 -3.113281 2.84375 -3.21875 C 2.613281 -3.332031 2.441406 -3.414062 2.328125 -3.46875 C 1.867188 -3.695312 1.507812 -3.984375 1.25 -4.328125 C 1 -4.671875 0.875 -5.039062 0.875 -5.4375 C 0.875 -6.113281 1.125 -6.664062 1.625 -7.09375 C 2.132812 -7.53125 2.710938 -7.75 3.359375 -7.75 Z M 3.359375 -7.75 "/></g></g></g><g fill="#000000" fill-opacity="1"><g transform="translate(262.11306, 231.920025)"><g><path d="M 4.90625 -7.625 L 4.90625 -6.09375 L 2.296875 -6.09375 L 2.296875 -4.578125 L 4.796875 -4.578125 L 4.796875 -3.0625 L 2.296875 -3.0625 L 2.296875 -1.53125 L 4.90625 -1.53125 L 4.90625 0 L 0.546875 0 L 0.546875 -7.625 Z M 4.90625 -7.625 "/></g></g></g><g fill="#000000" fill-opacity="1"><g transform="translate(271.360367, 231.920025)"><g><path d="M 0.546875 -7.625 L 3.28125 -7.625 C 4.007812 -7.625 4.601562 -7.425781 5.0625 -7.03125 C 5.53125 -6.644531 5.765625 -6.085938 5.765625 -5.359375 C 5.765625 -4.796875 5.625 -4.320312 5.34375 -3.9375 C 5.0625 -3.5625 4.679688 -3.300781 4.203125 -3.15625 L 6.828125 0 L 4.625 0 L 2.296875 -3.015625 L 2.296875 0 L 0.546875 0 Z M 2.296875 -4.234375 L 2.5 -4.234375 C 2.65625 -4.234375 2.785156 -4.234375 2.890625 -4.234375 C 3.003906 -4.242188 3.128906 -4.269531 3.265625 -4.3125 C 3.410156 -4.351562 3.523438 -4.40625 3.609375 -4.46875 C 3.703125 -4.539062 3.78125 -4.640625 3.84375 -4.765625 C 3.90625 -4.890625 3.9375 -5.046875 3.9375 -5.234375 C 3.9375 -5.421875 3.90625 -5.578125 3.84375 -5.703125 C 3.78125 -5.835938 3.703125 -5.9375 3.609375 -6 C 3.523438 -6.070312 3.410156 -6.125 3.265625 -6.15625 C 3.128906 -6.195312 3.003906 -6.21875 2.890625 -6.21875 C 2.785156 -6.226562 2.65625 -6.234375 2.5 -6.234375 L 2.296875 -6.234375 Z M 2.296875 -4.234375 "/></g></g></g><g fill="#000000" fill-opacity="1"><g transform="translate(281.863524, 231.920025)"><g><path d="M 2.9375 0 L -0.265625 -7.625 L 1.703125 -7.625 L 3.625 -2.609375 L 5.546875 -7.625 L 7.5 -7.625 L 4.296875 0 Z M 2.9375 0 "/></g></g></g><g fill="#000000" fill-opacity="1"><g transform="translate(292.99462, 231.920025)"><g><path d="M 2.296875 -7.625 L 2.296875 0 L 0.546875 0 L 0.546875 -7.625 Z M 2.296875 -7.625 "/></g></g></g><g fill="#000000" fill-opacity="1"><g transform="translate(299.730177, 231.920025)"><g><path d="M 4.609375 -1.5625 C 4.867188 -1.5625 5.125 -1.601562 5.375 -1.6875 C 5.625 -1.769531 5.804688 -1.847656 5.921875 -1.921875 L 6.109375 -2.046875 L 6.84375 -0.5625 C 6.820312 -0.539062 6.785156 -0.515625 6.734375 -0.484375 C 6.691406 -0.453125 6.59375 -0.394531 6.4375 -0.3125 C 6.28125 -0.226562 6.113281 -0.15625 5.9375 -0.09375 C 5.757812 -0.0390625 5.523438 0.0078125 5.234375 0.0625 C 4.941406 0.113281 4.644531 0.140625 4.34375 0.140625 C 3.632812 0.140625 2.960938 -0.03125 2.328125 -0.375 C 1.691406 -0.726562 1.179688 -1.207031 0.796875 -1.8125 C 0.410156 -2.425781 0.21875 -3.085938 0.21875 -3.796875 C 0.21875 -4.328125 0.328125 -4.835938 0.546875 -5.328125 C 0.773438 -5.828125 1.078125 -6.25 1.453125 -6.59375 C 1.835938 -6.945312 2.28125 -7.226562 2.78125 -7.4375 C 3.289062 -7.644531 3.8125 -7.75 4.34375 -7.75 C 4.832031 -7.75 5.285156 -7.691406 5.703125 -7.578125 C 6.117188 -7.460938 6.410156 -7.347656 6.578125 -7.234375 L 6.84375 -7.0625 L 6.109375 -5.578125 C 6.066406 -5.617188 6 -5.664062 5.90625 -5.71875 C 5.820312 -5.769531 5.648438 -5.835938 5.390625 -5.921875 C 5.128906 -6.003906 4.867188 -6.046875 4.609375 -6.046875 C 4.191406 -6.046875 3.816406 -5.976562 3.484375 -5.84375 C 3.148438 -5.707031 2.882812 -5.53125 2.6875 -5.3125 C 2.5 -5.09375 2.351562 -4.851562 2.25 -4.59375 C 2.144531 -4.332031 2.09375 -4.070312 2.09375 -3.8125 C 2.09375 -3.238281 2.304688 -2.71875 2.734375 -2.25 C 3.171875 -1.789062 3.796875 -1.5625 4.609375 -1.5625 Z M 4.609375 -1.5625 "/></g></g></g><g fill="#000000" fill-opacity="1"><g transform="translate(310.575009, 231.920025)"><g><path d="M 4.90625 -7.625 L 4.90625 -6.09375 L 2.296875 -6.09375 L 2.296875 -4.578125 L 4.796875 -4.578125 L 4.796875 -3.0625 L 2.296875 -3.0625 L 2.296875 -1.53125 L 4.90625 -1.53125 L 4.90625 0 L 0.546875 0 L 0.546875 -7.625 Z M 4.90625 -7.625 "/></g></g></g><g fill="#000000" fill-opacity="1"><g transform="translate(319.822316, 231.920025)"><g><path d="M 3.359375 -7.75 C 3.773438 -7.75 4.175781 -7.6875 4.5625 -7.5625 C 4.957031 -7.445312 5.253906 -7.332031 5.453125 -7.21875 L 5.71875 -7.03125 L 5.03125 -5.65625 C 4.96875 -5.6875 4.882812 -5.726562 4.78125 -5.78125 C 4.6875 -5.84375 4.503906 -5.921875 4.234375 -6.015625 C 3.960938 -6.117188 3.710938 -6.171875 3.484375 -6.171875 C 3.191406 -6.171875 2.96875 -6.109375 2.8125 -5.984375 C 2.65625 -5.867188 2.578125 -5.707031 2.578125 -5.5 C 2.578125 -5.394531 2.613281 -5.296875 2.6875 -5.203125 C 2.757812 -5.109375 2.882812 -5.007812 3.0625 -4.90625 C 3.238281 -4.8125 3.394531 -4.734375 3.53125 -4.671875 C 3.664062 -4.609375 3.878906 -4.515625 4.171875 -4.390625 C 4.660156 -4.179688 5.078125 -3.894531 5.421875 -3.53125 C 5.773438 -3.175781 5.953125 -2.769531 5.953125 -2.3125 C 5.953125 -1.875 5.867188 -1.492188 5.703125 -1.171875 C 5.546875 -0.847656 5.332031 -0.59375 5.0625 -0.40625 C 4.789062 -0.21875 4.488281 -0.0820312 4.15625 0 C 3.820312 0.09375 3.460938 0.140625 3.078125 0.140625 C 2.742188 0.140625 2.414062 0.101562 2.09375 0.03125 C 1.769531 -0.03125 1.5 -0.113281 1.28125 -0.21875 C 1.070312 -0.320312 0.878906 -0.421875 0.703125 -0.515625 C 0.535156 -0.617188 0.410156 -0.703125 0.328125 -0.765625 L 0.21875 -0.875 L 1.078125 -2.328125 C 1.148438 -2.265625 1.25 -2.1875 1.375 -2.09375 C 1.507812 -2 1.738281 -1.867188 2.0625 -1.703125 C 2.394531 -1.546875 2.691406 -1.46875 2.953125 -1.46875 C 3.679688 -1.46875 4.046875 -1.71875 4.046875 -2.21875 C 4.046875 -2.320312 4.019531 -2.414062 3.96875 -2.5 C 3.914062 -2.59375 3.820312 -2.679688 3.6875 -2.765625 C 3.550781 -2.859375 3.429688 -2.929688 3.328125 -2.984375 C 3.234375 -3.035156 3.070312 -3.113281 2.84375 -3.21875 C 2.613281 -3.332031 2.441406 -3.414062 2.328125 -3.46875 C 1.867188 -3.695312 1.507812 -3.984375 1.25 -4.328125 C 1 -4.671875 0.875 -5.039062 0.875 -5.4375 C 0.875 -6.113281 1.125 -6.664062 1.625 -7.09375 C 2.132812 -7.53125 2.710938 -7.75 3.359375 -7.75 Z M 3.359375 -7.75 "/></g></g></g></svg>