<svg xmlns="http://www.w3.org/2000/svg" xmlns:xlink="http://www.w3.org/1999/xlink" width="500" zoomAndPan="magnify" viewBox="0 0 375 374.999991" height="500" preserveAspectRatio="xMidYMid meet" version="1.0"><defs><g/></defs><g fill="#a70000" fill-opacity="1"><g transform="translate(37.207328, 208.857058)"><g><path d="M 1.859375 -33.296875 C 1.859375 -42.921875 5.132812 -51.066406 11.6875 -57.734375 C 18.25 -64.398438 26.15625 -67.734375 35.40625 -67.734375 C 44.707031 -67.734375 52.609375 -64.410156 59.109375 -57.765625 C 65.609375 -51.128906 68.859375 -42.972656 68.859375 -33.296875 C 68.859375 -23.566406 65.660156 -15.382812 59.265625 -8.75 C 52.867188 -2.113281 44.914062 1.203125 35.40625 1.203125 C 25.675781 1.203125 17.648438 -2.085938 11.328125 -8.671875 C 5.015625 -15.253906 1.859375 -23.460938 1.859375 -33.296875 Z M 18.21875 -33.296875 C 18.21875 -29.804688 18.753906 -26.625 19.828125 -23.75 C 20.910156 -20.875 22.796875 -18.441406 25.484375 -16.453125 C 28.171875 -14.460938 31.476562 -13.46875 35.40625 -13.46875 C 41.050781 -13.46875 45.3125 -15.398438 48.1875 -19.265625 C 51.0625 -23.140625 52.5 -27.816406 52.5 -33.296875 C 52.5 -38.734375 51.03125 -43.398438 48.09375 -47.296875 C 45.164062 -51.191406 40.9375 -53.140625 35.40625 -53.140625 C 29.914062 -53.140625 25.675781 -51.191406 22.6875 -47.296875 C 19.707031 -43.398438 18.21875 -38.734375 18.21875 -33.296875 Z M 18.21875 -33.296875 "/></g></g></g><g fill="#a70000" fill-opacity="1"><g transform="translate(117.771361, 208.857058)"><g><path d="M 4.84375 -66.53125 L 28.625 -66.53125 C 35.019531 -66.53125 40.234375 -64.820312 44.265625 -61.40625 C 48.296875 -57.988281 50.3125 -53.109375 50.3125 -46.765625 C 50.3125 -41.878906 49.085938 -37.78125 46.640625 -34.46875 C 44.203125 -31.164062 40.882812 -28.84375 36.6875 -27.5 L 59.59375 0 L 40.3125 0 L 20 -26.28125 L 20 0 L 4.84375 0 Z M 20 -37.015625 L 21.765625 -37.015625 C 23.171875 -37.015625 24.351562 -37.039062 25.3125 -37.09375 C 26.28125 -37.144531 27.382812 -37.332031 28.625 -37.65625 C 29.863281 -37.976562 30.859375 -38.4375 31.609375 -39.03125 C 32.359375 -39.625 33.003906 -40.484375 33.546875 -41.609375 C 34.085938 -42.734375 34.359375 -44.101562 34.359375 -45.71875 C 34.359375 -47.332031 34.085938 -48.703125 33.546875 -49.828125 C 33.003906 -50.960938 32.359375 -51.820312 31.609375 -52.40625 C 30.859375 -53 29.863281 -53.457031 28.625 -53.78125 C 27.382812 -54.101562 26.28125 -54.289062 25.3125 -54.34375 C 24.351562 -54.40625 23.171875 -54.4375 21.765625 -54.4375 L 20 -54.4375 Z M 20 -37.015625 "/></g></g></g><g fill="#a70000" fill-opacity="1"><g transform="translate(185.351776, 208.857058)"><g><path d="M 4.84375 -66.53125 L 25.484375 -66.53125 C 31.722656 -66.53125 36.695312 -65.195312 40.40625 -62.53125 C 44.113281 -59.875 45.96875 -55.5625 45.96875 -49.59375 C 45.96875 -42.925781 43.195312 -38.171875 37.65625 -35.328125 C 47.125 -33.660156 51.859375 -28.066406 51.859375 -18.546875 C 51.859375 -12.953125 49.921875 -8.460938 46.046875 -5.078125 C 42.171875 -1.691406 36.847656 0 30.078125 0 L 4.84375 0 Z M 20 -40.484375 L 21.203125 -40.484375 C 24.585938 -40.484375 27.113281 -41.070312 28.78125 -42.25 C 30.445312 -43.4375 31.28125 -45.375 31.28125 -48.0625 C 31.28125 -52.570312 27.921875 -54.828125 21.203125 -54.828125 L 20 -54.828125 Z M 20 -11.6875 L 24.75 -11.6875 C 32.175781 -11.6875 35.890625 -14.160156 35.890625 -19.109375 C 35.890625 -22.066406 34.960938 -24.191406 33.109375 -25.484375 C 31.253906 -26.773438 28.46875 -27.421875 24.75 -27.421875 L 20 -27.421875 Z M 20 -11.6875 "/></g></g></g><g fill="#a70000" fill-opacity="1"><g transform="translate(248.900012, 208.857058)"><g><path d="M 20 -66.53125 L 20 0 L 4.84375 0 L 4.84375 -66.53125 Z M 20 -66.53125 "/></g></g></g><g fill="#a70000" fill-opacity="1"><g transform="translate(283.577816, 208.857058)"><g><path d="M 29.359375 -67.734375 C 32.953125 -67.734375 36.46875 -67.207031 39.90625 -66.15625 C 43.351562 -65.113281 45.910156 -64.082031 47.578125 -63.0625 L 50 -61.453125 L 43.875 -49.359375 C 43.382812 -49.671875 42.707031 -50.082031 41.84375 -50.59375 C 40.988281 -51.113281 39.378906 -51.800781 37.015625 -52.65625 C 34.648438 -53.519531 32.445312 -53.953125 30.40625 -53.953125 C 27.875 -53.953125 25.921875 -53.410156 24.546875 -52.328125 C 23.179688 -51.253906 22.5 -49.804688 22.5 -47.984375 C 22.5 -47.066406 22.820312 -46.21875 23.46875 -45.4375 C 24.113281 -44.65625 25.210938 -43.820312 26.765625 -42.9375 C 28.328125 -42.050781 29.695312 -41.335938 30.875 -40.796875 C 32.0625 -40.265625 33.894531 -39.460938 36.375 -38.390625 C 40.664062 -36.554688 44.332031 -34.066406 47.375 -30.921875 C 50.414062 -27.773438 51.9375 -24.210938 51.9375 -20.234375 C 51.9375 -16.421875 51.25 -13.085938 49.875 -10.234375 C 48.5 -7.390625 46.613281 -5.160156 44.21875 -3.546875 C 41.832031 -1.929688 39.1875 -0.738281 36.28125 0.03125 C 33.382812 0.8125 30.242188 1.203125 26.859375 1.203125 C 23.953125 1.203125 21.097656 0.90625 18.296875 0.3125 C 15.503906 -0.269531 13.164062 -1.003906 11.28125 -1.890625 C 9.40625 -2.773438 7.710938 -3.648438 6.203125 -4.515625 C 4.703125 -5.378906 3.601562 -6.101562 2.90625 -6.6875 L 1.859375 -7.578125 L 9.4375 -20.328125 C 10.082031 -19.785156 10.96875 -19.097656 12.09375 -18.265625 C 13.226562 -17.429688 15.234375 -16.316406 18.109375 -14.921875 C 20.984375 -13.523438 23.519531 -12.828125 25.71875 -12.828125 C 32.125 -12.828125 35.328125 -15.003906 35.328125 -19.359375 C 35.328125 -20.265625 35.097656 -21.109375 34.640625 -21.890625 C 34.179688 -22.671875 33.375 -23.453125 32.21875 -24.234375 C 31.0625 -25.015625 30.039062 -25.628906 29.15625 -26.078125 C 28.269531 -26.535156 26.816406 -27.234375 24.796875 -28.171875 C 22.773438 -29.117188 21.285156 -29.835938 20.328125 -30.328125 C 16.285156 -32.304688 13.160156 -34.785156 10.953125 -37.765625 C 8.753906 -40.753906 7.65625 -43.972656 7.65625 -47.421875 C 7.65625 -53.390625 9.859375 -58.265625 14.265625 -62.046875 C 18.679688 -65.835938 23.710938 -67.734375 29.359375 -67.734375 Z M 29.359375 -67.734375 "/></g></g></g></svg>