<svg xmlns="http://www.w3.org/2000/svg" xmlns:xlink="http://www.w3.org/1999/xlink" width="500" zoomAndPan="magnify" viewBox="0 0 375 374.999991" height="500" preserveAspectRatio="xMidYMid meet" version="1.0"><defs><g/></defs><g fill="#000000" fill-opacity="1"><g transform="translate(40.315754, 189.685401)"><g><path d="M 5.234375 -8.03125 L 5.234375 -6.421875 L 2.421875 -6.421875 L 2.421875 -4.828125 L 5.015625 -4.828125 L 5.015625 -3.21875 L 2.421875 -3.21875 L 2.421875 0 L 0.578125 0 L 0.578125 -8.03125 Z M 5.234375 -8.03125 "/></g></g></g><g fill="#000000" fill-opacity="1"><g transform="translate(49.940716, 189.685401)"><g><path d="M 0.21875 -4.015625 C 0.21875 -5.179688 0.613281 -6.164062 1.40625 -6.96875 C 2.195312 -7.769531 3.148438 -8.171875 4.265625 -8.171875 C 5.390625 -8.171875 6.34375 -7.769531 7.125 -6.96875 C 7.914062 -6.164062 8.3125 -5.179688 8.3125 -4.015625 C 8.3125 -2.847656 7.925781 -1.863281 7.15625 -1.0625 C 6.382812 -0.257812 5.421875 0.140625 4.265625 0.140625 C 3.097656 0.140625 2.128906 -0.253906 1.359375 -1.046875 C 0.597656 -1.835938 0.21875 -2.828125 0.21875 -4.015625 Z M 2.203125 -4.015625 C 2.203125 -3.597656 2.265625 -3.210938 2.390625 -2.859375 C 2.523438 -2.515625 2.753906 -2.222656 3.078125 -1.984375 C 3.398438 -1.742188 3.796875 -1.625 4.265625 -1.625 C 4.953125 -1.625 5.46875 -1.859375 5.8125 -2.328125 C 6.164062 -2.796875 6.34375 -3.359375 6.34375 -4.015625 C 6.34375 -4.671875 6.164062 -5.234375 5.8125 -5.703125 C 5.457031 -6.179688 4.941406 -6.421875 4.265625 -6.421875 C 3.609375 -6.421875 3.097656 -6.179688 2.734375 -5.703125 C 2.378906 -5.234375 2.203125 -4.671875 2.203125 -4.015625 Z M 2.203125 -4.015625 "/></g></g></g><g fill="#000000" fill-opacity="1"><g transform="translate(62.585248, 189.685401)"><g><path d="M 0.578125 -8.03125 L 3.453125 -8.03125 C 4.222656 -8.03125 4.851562 -7.820312 5.34375 -7.40625 C 5.832031 -7 6.078125 -6.410156 6.078125 -5.640625 C 6.078125 -5.054688 5.925781 -4.5625 5.625 -4.15625 C 5.332031 -3.757812 4.929688 -3.476562 4.421875 -3.3125 L 7.1875 0 L 4.875 0 L 2.421875 -3.171875 L 2.421875 0 L 0.578125 0 Z M 2.421875 -4.46875 L 2.625 -4.46875 C 2.789062 -4.46875 2.929688 -4.46875 3.046875 -4.46875 C 3.171875 -4.476562 3.304688 -4.503906 3.453125 -4.546875 C 3.597656 -4.585938 3.71875 -4.640625 3.8125 -4.703125 C 3.90625 -4.773438 3.984375 -4.878906 4.046875 -5.015625 C 4.109375 -5.160156 4.140625 -5.328125 4.140625 -5.515625 C 4.140625 -5.710938 4.109375 -5.878906 4.046875 -6.015625 C 3.984375 -6.148438 3.90625 -6.253906 3.8125 -6.328125 C 3.71875 -6.398438 3.597656 -6.453125 3.453125 -6.484375 C 3.304688 -6.523438 3.171875 -6.550781 3.046875 -6.5625 C 2.929688 -6.570312 2.789062 -6.578125 2.625 -6.578125 L 2.421875 -6.578125 Z M 2.421875 -4.46875 "/></g></g></g><g fill="#000000" fill-opacity="1"><g transform="translate(73.661555, 189.685401)"><g/></g></g><g fill="#000000" fill-opacity="1"><g transform="translate(80.4228, 189.685401)"><g><path d="M 0.21875 -4.015625 C 0.21875 -5.179688 0.613281 -6.164062 1.40625 -6.96875 C 2.195312 -7.769531 3.148438 -8.171875 4.265625 -8.171875 C 5.390625 -8.171875 6.34375 -7.769531 7.125 -6.96875 C 7.914062 -6.164062 8.3125 -5.179688 8.3125 -4.015625 C 8.3125 -2.847656 7.925781 -1.863281 7.15625 -1.0625 C 6.382812 -0.257812 5.421875 0.140625 4.265625 0.140625 C 3.097656 0.140625 2.128906 -0.253906 1.359375 -1.046875 C 0.597656 -1.835938 0.21875 -2.828125 0.21875 -4.015625 Z M 2.203125 -4.015625 C 2.203125 -3.597656 2.265625 -3.210938 2.390625 -2.859375 C 2.523438 -2.515625 2.753906 -2.222656 3.078125 -1.984375 C 3.398438 -1.742188 3.796875 -1.625 4.265625 -1.625 C 4.953125 -1.625 5.46875 -1.859375 5.8125 -2.328125 C 6.164062 -2.796875 6.34375 -3.359375 6.34375 -4.015625 C 6.34375 -4.671875 6.164062 -5.234375 5.8125 -5.703125 C 5.457031 -6.179688 4.941406 -6.421875 4.265625 -6.421875 C 3.609375 -6.421875 3.097656 -6.179688 2.734375 -5.703125 C 2.378906 -5.234375 2.203125 -4.671875 2.203125 -4.015625 Z M 2.203125 -4.015625 "/></g></g></g><g fill="#000000" fill-opacity="1"><g transform="translate(93.067335, 189.685401)"><g><path d="M 0.578125 -8.03125 L 3.515625 -8.03125 C 4.328125 -8.03125 4.988281 -7.816406 5.5 -7.390625 C 6.007812 -6.972656 6.265625 -6.359375 6.265625 -5.546875 C 6.265625 -4.742188 6.003906 -4.113281 5.484375 -3.65625 C 4.972656 -3.207031 4.316406 -2.984375 3.515625 -2.984375 L 2.421875 -2.984375 L 2.421875 0 L 0.578125 0 Z M 2.421875 -4.4375 L 2.9375 -4.4375 C 3.34375 -4.4375 3.675781 -4.519531 3.9375 -4.6875 C 4.195312 -4.851562 4.328125 -5.125 4.328125 -5.5 C 4.328125 -5.882812 4.195312 -6.160156 3.9375 -6.328125 C 3.675781 -6.492188 3.34375 -6.578125 2.9375 -6.578125 L 2.421875 -6.578125 Z M 2.421875 -4.4375 "/></g></g></g><g fill="#000000" fill-opacity="1"><g transform="translate(103.656613, 189.685401)"><g><path d="M 5.171875 -8.03125 L 5.171875 -6.421875 L 2.421875 -6.421875 L 2.421875 -4.828125 L 5.0625 -4.828125 L 5.0625 -3.21875 L 2.421875 -3.21875 L 2.421875 -1.609375 L 5.171875 -1.609375 L 5.171875 0 L 0.578125 0 L 0.578125 -8.03125 Z M 5.171875 -8.03125 "/></g></g></g><g fill="#000000" fill-opacity="1"><g transform="translate(113.408208, 189.685401)"><g><path d="M 0.578125 -8.03125 L 3.453125 -8.03125 C 4.222656 -8.03125 4.851562 -7.820312 5.34375 -7.40625 C 5.832031 -7 6.078125 -6.410156 6.078125 -5.640625 C 6.078125 -5.054688 5.925781 -4.5625 5.625 -4.15625 C 5.332031 -3.757812 4.929688 -3.476562 4.421875 -3.3125 L 7.1875 0 L 4.875 0 L 2.421875 -3.171875 L 2.421875 0 L 0.578125 0 Z M 2.421875 -4.46875 L 2.625 -4.46875 C 2.789062 -4.46875 2.929688 -4.46875 3.046875 -4.46875 C 3.171875 -4.476562 3.304688 -4.503906 3.453125 -4.546875 C 3.597656 -4.585938 3.71875 -4.640625 3.8125 -4.703125 C 3.90625 -4.773438 3.984375 -4.878906 4.046875 -5.015625 C 4.109375 -5.160156 4.140625 -5.328125 4.140625 -5.515625 C 4.140625 -5.710938 4.109375 -5.878906 4.046875 -6.015625 C 3.984375 -6.148438 3.90625 -6.253906 3.8125 -6.328125 C 3.71875 -6.398438 3.597656 -6.453125 3.453125 -6.484375 C 3.304688 -6.523438 3.171875 -6.550781 3.046875 -6.5625 C 2.929688 -6.570312 2.789062 -6.578125 2.625 -6.578125 L 2.421875 -6.578125 Z M 2.421875 -4.46875 "/></g></g></g><g fill="#000000" fill-opacity="1"><g transform="translate(124.484517, 189.685401)"><g><path d="M 4.65625 -8.03125 L 7.90625 0 L 5.9375 0 L 5.34375 -1.609375 L 2.28125 -1.609375 L 1.6875 0 L -0.265625 0 L 2.96875 -8.03125 Z M 4.71875 -3.21875 L 3.828125 -5.546875 L 3.8125 -5.546875 L 2.90625 -3.21875 Z M 4.71875 -3.21875 "/></g></g></g><g fill="#000000" fill-opacity="1"><g transform="translate(136.223184, 189.685401)"><g><path d="M 0.078125 -6.421875 L 0.078125 -8.03125 L 5.71875 -8.03125 L 5.71875 -6.421875 L 3.8125 -6.421875 L 3.8125 0 L 1.984375 0 L 1.984375 -6.421875 Z M 0.078125 -6.421875 "/></g></g></g><g fill="#000000" fill-opacity="1"><g transform="translate(146.130623, 189.685401)"><g><path d="M 2.421875 -8.03125 L 2.421875 0 L 0.578125 0 L 0.578125 -8.03125 Z M 2.421875 -8.03125 "/></g></g></g><g fill="#000000" fill-opacity="1"><g transform="translate(153.23279, 189.685401)"><g><path d="M 2.421875 -4.984375 L 2.421875 0 L 0.578125 0 L 0.578125 -8.03125 L 2.421875 -8.03125 L 5.609375 -3.046875 L 5.625 -3.046875 L 5.625 -8.03125 L 7.453125 -8.03125 L 7.453125 0 L 5.625 0 L 2.4375 -4.984375 Z M 2.421875 -4.984375 "/></g></g></g><g fill="#000000" fill-opacity="1"><g transform="translate(165.380552, 189.685401)"><g><path d="M 7.84375 -4.5 L 7.84375 -2.75 C 7.632812 -1.800781 7.179688 -1.082031 6.484375 -0.59375 C 5.785156 -0.101562 5.003906 0.140625 4.140625 0.140625 C 3.054688 0.140625 2.128906 -0.257812 1.359375 -1.0625 C 0.597656 -1.875 0.21875 -2.859375 0.21875 -4.015625 C 0.21875 -5.179688 0.59375 -6.164062 1.34375 -6.96875 C 2.09375 -7.769531 3.023438 -8.171875 4.140625 -8.171875 C 5.441406 -8.171875 6.472656 -7.710938 7.234375 -6.796875 L 6.03125 -5.484375 C 5.601562 -6.171875 5.007812 -6.515625 4.25 -6.515625 C 3.675781 -6.515625 3.191406 -6.269531 2.796875 -5.78125 C 2.398438 -5.289062 2.203125 -4.703125 2.203125 -4.015625 C 2.203125 -3.328125 2.398438 -2.738281 2.796875 -2.25 C 3.191406 -1.769531 3.675781 -1.53125 4.25 -1.53125 C 4.707031 -1.53125 5.109375 -1.671875 5.453125 -1.953125 C 5.804688 -2.242188 5.984375 -2.617188 5.984375 -3.078125 L 4.140625 -3.078125 L 4.140625 -4.5 Z M 7.84375 -4.5 "/></g></g></g><g fill="#000000" fill-opacity="1"><g transform="translate(177.557536, 189.685401)"><g/></g></g><g fill="#000000" fill-opacity="1"><g transform="translate(184.318783, 189.685401)"><g><path d="M 3.546875 -8.171875 C 3.984375 -8.171875 4.40625 -8.109375 4.8125 -7.984375 C 5.226562 -7.859375 5.539062 -7.734375 5.75 -7.609375 L 6.03125 -7.421875 L 5.296875 -5.953125 C 5.234375 -5.992188 5.148438 -6.046875 5.046875 -6.109375 C 4.941406 -6.171875 4.75 -6.253906 4.46875 -6.359375 C 4.1875 -6.460938 3.921875 -6.515625 3.671875 -6.515625 C 3.367188 -6.515625 3.132812 -6.445312 2.96875 -6.3125 C 2.800781 -6.1875 2.71875 -6.015625 2.71875 -5.796875 C 2.71875 -5.679688 2.753906 -5.578125 2.828125 -5.484375 C 2.910156 -5.390625 3.046875 -5.285156 3.234375 -5.171875 C 3.421875 -5.066406 3.582031 -4.984375 3.71875 -4.921875 C 3.863281 -4.859375 4.085938 -4.765625 4.390625 -4.640625 C 4.910156 -4.410156 5.351562 -4.101562 5.71875 -3.71875 C 6.082031 -3.34375 6.265625 -2.914062 6.265625 -2.4375 C 6.265625 -1.976562 6.179688 -1.578125 6.015625 -1.234375 C 5.847656 -0.890625 5.617188 -0.617188 5.328125 -0.421875 C 5.046875 -0.234375 4.726562 -0.09375 4.375 0 C 4.03125 0.09375 3.648438 0.140625 3.234375 0.140625 C 2.890625 0.140625 2.546875 0.101562 2.203125 0.03125 C 1.867188 -0.03125 1.585938 -0.113281 1.359375 -0.21875 C 1.128906 -0.332031 0.925781 -0.441406 0.75 -0.546875 C 0.570312 -0.648438 0.4375 -0.738281 0.34375 -0.8125 L 0.21875 -0.921875 L 1.140625 -2.453125 C 1.210938 -2.390625 1.316406 -2.304688 1.453125 -2.203125 C 1.597656 -2.097656 1.84375 -1.960938 2.1875 -1.796875 C 2.53125 -1.628906 2.835938 -1.546875 3.109375 -1.546875 C 3.878906 -1.546875 4.265625 -1.8125 4.265625 -2.34375 C 4.265625 -2.445312 4.234375 -2.546875 4.171875 -2.640625 C 4.117188 -2.734375 4.019531 -2.828125 3.875 -2.921875 C 3.738281 -3.015625 3.617188 -3.085938 3.515625 -3.140625 C 3.410156 -3.203125 3.234375 -3.289062 2.984375 -3.40625 C 2.742188 -3.519531 2.566406 -3.601562 2.453125 -3.65625 C 1.960938 -3.894531 1.582031 -4.191406 1.3125 -4.546875 C 1.050781 -4.910156 0.921875 -5.300781 0.921875 -5.71875 C 0.921875 -6.4375 1.1875 -7.023438 1.71875 -7.484375 C 2.25 -7.941406 2.859375 -8.171875 3.546875 -8.171875 Z M 3.546875 -8.171875 "/></g></g></g><g fill="#000000" fill-opacity="1"><g transform="translate(194.966506, 189.685401)"><g><path d="M -0.296875 -8.03125 L 1.90625 -8.03125 L 3.578125 -5.46875 L 5.25 -8.03125 L 7.453125 -8.03125 L 4.5 -3.609375 L 4.5 0 L 2.671875 0 L 2.671875 -3.609375 Z M -0.296875 -8.03125 "/></g></g></g><g fill="#000000" fill-opacity="1"><g transform="translate(206.237612, 189.685401)"><g><path d="M 3.546875 -8.171875 C 3.984375 -8.171875 4.40625 -8.109375 4.8125 -7.984375 C 5.226562 -7.859375 5.539062 -7.734375 5.75 -7.609375 L 6.03125 -7.421875 L 5.296875 -5.953125 C 5.234375 -5.992188 5.148438 -6.046875 5.046875 -6.109375 C 4.941406 -6.171875 4.75 -6.253906 4.46875 -6.359375 C 4.1875 -6.460938 3.921875 -6.515625 3.671875 -6.515625 C 3.367188 -6.515625 3.132812 -6.445312 2.96875 -6.3125 C 2.800781 -6.1875 2.71875 -6.015625 2.71875 -5.796875 C 2.71875 -5.679688 2.753906 -5.578125 2.828125 -5.484375 C 2.910156 -5.390625 3.046875 -5.285156 3.234375 -5.171875 C 3.421875 -5.066406 3.582031 -4.984375 3.71875 -4.921875 C 3.863281 -4.859375 4.085938 -4.765625 4.390625 -4.640625 C 4.910156 -4.410156 5.351562 -4.101562 5.71875 -3.71875 C 6.082031 -3.34375 6.265625 -2.914062 6.265625 -2.4375 C 6.265625 -1.976562 6.179688 -1.578125 6.015625 -1.234375 C 5.847656 -0.890625 5.617188 -0.617188 5.328125 -0.421875 C 5.046875 -0.234375 4.726562 -0.09375 4.375 0 C 4.03125 0.09375 3.648438 0.140625 3.234375 0.140625 C 2.890625 0.140625 2.546875 0.101562 2.203125 0.03125 C 1.867188 -0.03125 1.585938 -0.113281 1.359375 -0.21875 C 1.128906 -0.332031 0.925781 -0.441406 0.75 -0.546875 C 0.570312 -0.648438 0.4375 -0.738281 0.34375 -0.8125 L 0.21875 -0.921875 L 1.140625 -2.453125 C 1.210938 -2.390625 1.316406 -2.304688 1.453125 -2.203125 C 1.597656 -2.097656 1.84375 -1.960938 2.1875 -1.796875 C 2.53125 -1.628906 2.835938 -1.546875 3.109375 -1.546875 C 3.878906 -1.546875 4.265625 -1.8125 4.265625 -2.34375 C 4.265625 -2.445312 4.234375 -2.546875 4.171875 -2.640625 C 4.117188 -2.734375 4.019531 -2.828125 3.875 -2.921875 C 3.738281 -3.015625 3.617188 -3.085938 3.515625 -3.140625 C 3.410156 -3.203125 3.234375 -3.289062 2.984375 -3.40625 C 2.742188 -3.519531 2.566406 -3.601562 2.453125 -3.65625 C 1.960938 -3.894531 1.582031 -4.191406 1.3125 -4.546875 C 1.050781 -4.910156 0.921875 -5.300781 0.921875 -5.71875 C 0.921875 -6.4375 1.1875 -7.023438 1.71875 -7.484375 C 2.25 -7.941406 2.859375 -8.171875 3.546875 -8.171875 Z M 3.546875 -8.171875 "/></g></g></g><g fill="#000000" fill-opacity="1"><g transform="translate(216.885335, 189.685401)"><g><path d="M 0.078125 -6.421875 L 0.078125 -8.03125 L 5.71875 -8.03125 L 5.71875 -6.421875 L 3.8125 -6.421875 L 3.8125 0 L 1.984375 0 L 1.984375 -6.421875 Z M 0.078125 -6.421875 "/></g></g></g><g fill="#000000" fill-opacity="1"><g transform="translate(226.792773, 189.685401)"><g><path d="M 5.171875 -8.03125 L 5.171875 -6.421875 L 2.421875 -6.421875 L 2.421875 -4.828125 L 5.0625 -4.828125 L 5.0625 -3.21875 L 2.421875 -3.21875 L 2.421875 -1.609375 L 5.171875 -1.609375 L 5.171875 0 L 0.578125 0 L 0.578125 -8.03125 Z M 5.171875 -8.03125 "/></g></g></g><g fill="#000000" fill-opacity="1"><g transform="translate(236.544359, 189.685401)"><g><path d="M 7.21875 0 L 6.84375 -4.765625 L 6.796875 -4.765625 L 5.15625 -0.046875 L 4.0625 -0.046875 L 2.421875 -4.765625 L 2.359375 -4.765625 L 1.984375 0 L 0.15625 0 L 0.875 -8.03125 L 2.828125 -8.03125 L 4.609375 -3.390625 L 6.390625 -8.03125 L 8.328125 -8.03125 L 9.046875 0 Z M 7.21875 0 "/></g></g></g><g fill="#000000" fill-opacity="1"><g transform="translate(249.860973, 189.685401)"><g/></g></g><g fill="#000000" fill-opacity="1"><g transform="translate(256.62221, 189.685401)"><g><path d="M 3.546875 -8.171875 C 3.984375 -8.171875 4.40625 -8.109375 4.8125 -7.984375 C 5.226562 -7.859375 5.539062 -7.734375 5.75 -7.609375 L 6.03125 -7.421875 L 5.296875 -5.953125 C 5.234375 -5.992188 5.148438 -6.046875 5.046875 -6.109375 C 4.941406 -6.171875 4.75 -6.253906 4.46875 -6.359375 C 4.1875 -6.460938 3.921875 -6.515625 3.671875 -6.515625 C 3.367188 -6.515625 3.132812 -6.445312 2.96875 -6.3125 C 2.800781 -6.1875 2.71875 -6.015625 2.71875 -5.796875 C 2.71875 -5.679688 2.753906 -5.578125 2.828125 -5.484375 C 2.910156 -5.390625 3.046875 -5.285156 3.234375 -5.171875 C 3.421875 -5.066406 3.582031 -4.984375 3.71875 -4.921875 C 3.863281 -4.859375 4.085938 -4.765625 4.390625 -4.640625 C 4.910156 -4.410156 5.351562 -4.101562 5.71875 -3.71875 C 6.082031 -3.34375 6.265625 -2.914062 6.265625 -2.4375 C 6.265625 -1.976562 6.179688 -1.578125 6.015625 -1.234375 C 5.847656 -0.890625 5.617188 -0.617188 5.328125 -0.421875 C 5.046875 -0.234375 4.726562 -0.09375 4.375 0 C 4.03125 0.09375 3.648438 0.140625 3.234375 0.140625 C 2.890625 0.140625 2.546875 0.101562 2.203125 0.03125 C 1.867188 -0.03125 1.585938 -0.113281 1.359375 -0.21875 C 1.128906 -0.332031 0.925781 -0.441406 0.75 -0.546875 C 0.570312 -0.648438 0.4375 -0.738281 0.34375 -0.8125 L 0.21875 -0.921875 L 1.140625 -2.453125 C 1.210938 -2.390625 1.316406 -2.304688 1.453125 -2.203125 C 1.597656 -2.097656 1.84375 -1.960938 2.1875 -1.796875 C 2.53125 -1.628906 2.835938 -1.546875 3.109375 -1.546875 C 3.878906 -1.546875 4.265625 -1.8125 4.265625 -2.34375 C 4.265625 -2.445312 4.234375 -2.546875 4.171875 -2.640625 C 4.117188 -2.734375 4.019531 -2.828125 3.875 -2.921875 C 3.738281 -3.015625 3.617188 -3.085938 3.515625 -3.140625 C 3.410156 -3.203125 3.234375 -3.289062 2.984375 -3.40625 C 2.742188 -3.519531 2.566406 -3.601562 2.453125 -3.65625 C 1.960938 -3.894531 1.582031 -4.191406 1.3125 -4.546875 C 1.050781 -4.910156 0.921875 -5.300781 0.921875 -5.71875 C 0.921875 -6.4375 1.1875 -7.023438 1.71875 -7.484375 C 2.25 -7.941406 2.859375 -8.171875 3.546875 -8.171875 Z M 3.546875 -8.171875 "/></g></g></g><g fill="#000000" fill-opacity="1"><g transform="translate(267.269933, 189.685401)"><g><path d="M 5.171875 -8.03125 L 5.171875 -6.421875 L 2.421875 -6.421875 L 2.421875 -4.828125 L 5.0625 -4.828125 L 5.0625 -3.21875 L 2.421875 -3.21875 L 2.421875 -1.609375 L 5.171875 -1.609375 L 5.171875 0 L 0.578125 0 L 0.578125 -8.03125 Z M 5.171875 -8.03125 "/></g></g></g><g fill="#000000" fill-opacity="1"><g transform="translate(277.021518, 189.685401)"><g><path d="M 0.578125 -8.03125 L 3.453125 -8.03125 C 4.222656 -8.03125 4.851562 -7.820312 5.34375 -7.40625 C 5.832031 -7 6.078125 -6.410156 6.078125 -5.640625 C 6.078125 -5.054688 5.925781 -4.5625 5.625 -4.15625 C 5.332031 -3.757812 4.929688 -3.476562 4.421875 -3.3125 L 7.1875 0 L 4.875 0 L 2.421875 -3.171875 L 2.421875 0 L 0.578125 0 Z M 2.421875 -4.46875 L 2.625 -4.46875 C 2.789062 -4.46875 2.929688 -4.46875 3.046875 -4.46875 C 3.171875 -4.476562 3.304688 -4.503906 3.453125 -4.546875 C 3.597656 -4.585938 3.71875 -4.640625 3.8125 -4.703125 C 3.90625 -4.773438 3.984375 -4.878906 4.046875 -5.015625 C 4.109375 -5.160156 4.140625 -5.328125 4.140625 -5.515625 C 4.140625 -5.710938 4.109375 -5.878906 4.046875 -6.015625 C 3.984375 -6.148438 3.90625 -6.253906 3.8125 -6.328125 C 3.71875 -6.398438 3.597656 -6.453125 3.453125 -6.484375 C 3.304688 -6.523438 3.171875 -6.550781 3.046875 -6.5625 C 2.929688 -6.570312 2.789062 -6.578125 2.625 -6.578125 L 2.421875 -6.578125 Z M 2.421875 -4.46875 "/></g></g></g><g fill="#000000" fill-opacity="1"><g transform="translate(288.097818, 189.685401)"><g><path d="M 3.09375 0 L -0.265625 -8.03125 L 1.796875 -8.03125 L 3.8125 -2.75 L 5.84375 -8.03125 L 7.90625 -8.03125 L 4.53125 0 Z M 3.09375 0 "/></g></g></g><g fill="#000000" fill-opacity="1"><g transform="translate(299.836475, 189.685401)"><g><path d="M 2.421875 -8.03125 L 2.421875 0 L 0.578125 0 L 0.578125 -8.03125 Z M 2.421875 -8.03125 "/></g></g></g><g fill="#000000" fill-opacity="1"><g transform="translate(306.938632, 189.685401)"><g><path d="M 4.859375 -1.65625 C 5.140625 -1.65625 5.410156 -1.695312 5.671875 -1.78125 C 5.929688 -1.863281 6.125 -1.945312 6.25 -2.03125 L 6.4375 -2.15625 L 7.21875 -0.59375 C 7.1875 -0.570312 7.144531 -0.546875 7.09375 -0.515625 C 7.050781 -0.484375 6.945312 -0.421875 6.78125 -0.328125 C 6.625 -0.242188 6.453125 -0.171875 6.265625 -0.109375 C 6.078125 -0.046875 5.828125 0.0078125 5.515625 0.0625 C 5.210938 0.113281 4.898438 0.140625 4.578125 0.140625 C 3.828125 0.140625 3.117188 -0.0390625 2.453125 -0.40625 C 1.785156 -0.769531 1.242188 -1.269531 0.828125 -1.90625 C 0.421875 -2.550781 0.21875 -3.25 0.21875 -4 C 0.21875 -4.5625 0.335938 -5.101562 0.578125 -5.625 C 0.816406 -6.144531 1.132812 -6.585938 1.53125 -6.953125 C 1.9375 -7.328125 2.40625 -7.625 2.9375 -7.84375 C 3.46875 -8.0625 4.015625 -8.171875 4.578125 -8.171875 C 5.097656 -8.171875 5.578125 -8.109375 6.015625 -7.984375 C 6.453125 -7.867188 6.757812 -7.75 6.9375 -7.625 L 7.21875 -7.4375 L 6.4375 -5.875 C 6.382812 -5.914062 6.3125 -5.960938 6.21875 -6.015625 C 6.132812 -6.078125 5.957031 -6.148438 5.6875 -6.234375 C 5.414062 -6.328125 5.140625 -6.375 4.859375 -6.375 C 4.421875 -6.375 4.023438 -6.300781 3.671875 -6.15625 C 3.316406 -6.019531 3.035156 -5.832031 2.828125 -5.59375 C 2.628906 -5.363281 2.472656 -5.113281 2.359375 -4.84375 C 2.253906 -4.570312 2.203125 -4.296875 2.203125 -4.015625 C 2.203125 -3.410156 2.429688 -2.863281 2.890625 -2.375 C 3.347656 -1.894531 4.003906 -1.65625 4.859375 -1.65625 Z M 4.859375 -1.65625 "/></g></g></g><g fill="#000000" fill-opacity="1"><g transform="translate(318.375333, 189.685401)"><g><path d="M 5.171875 -8.03125 L 5.171875 -6.421875 L 2.421875 -6.421875 L 2.421875 -4.828125 L 5.0625 -4.828125 L 5.0625 -3.21875 L 2.421875 -3.21875 L 2.421875 -1.609375 L 5.171875 -1.609375 L 5.171875 0 L 0.578125 0 L 0.578125 -8.03125 Z M 5.171875 -8.03125 "/></g></g></g><g fill="#000000" fill-opacity="1"><g transform="translate(328.126918, 189.685401)"><g><path d="M 3.546875 -8.171875 C 3.984375 -8.171875 4.40625 -8.109375 4.8125 -7.984375 C 5.226562 -7.859375 5.539062 -7.734375 5.75 -7.609375 L 6.03125 -7.421875 L 5.296875 -5.953125 C 5.234375 -5.992188 5.148438 -6.046875 5.046875 -6.109375 C 4.941406 -6.171875 4.75 -6.253906 4.46875 -6.359375 C 4.1875 -6.460938 3.921875 -6.515625 3.671875 -6.515625 C 3.367188 -6.515625 3.132812 -6.445312 2.96875 -6.3125 C 2.800781 -6.1875 2.71875 -6.015625 2.71875 -5.796875 C 2.71875 -5.679688 2.753906 -5.578125 2.828125 -5.484375 C 2.910156 -5.390625 3.046875 -5.285156 3.234375 -5.171875 C 3.421875 -5.066406 3.582031 -4.984375 3.71875 -4.921875 C 3.863281 -4.859375 4.085938 -4.765625 4.390625 -4.640625 C 4.910156 -4.410156 5.351562 -4.101562 5.71875 -3.71875 C 6.082031 -3.34375 6.265625 -2.914062 6.265625 -2.4375 C 6.265625 -1.976562 6.179688 -1.578125 6.015625 -1.234375 C 5.847656 -0.890625 5.617188 -0.617188 5.328125 -0.421875 C 5.046875 -0.234375 4.726562 -0.09375 4.375 0 C 4.03125 0.09375 3.648438 0.140625 3.234375 0.140625 C 2.890625 0.140625 2.546875 0.101562 2.203125 0.03125 C 1.867188 -0.03125 1.585938 -0.113281 1.359375 -0.21875 C 1.128906 -0.332031 0.925781 -0.441406 0.75 -0.546875 C 0.570312 -0.648438 0.4375 -0.738281 0.34375 -0.8125 L 0.21875 -0.921875 L 1.140625 -2.453125 C 1.210938 -2.390625 1.316406 -2.304688 1.453125 -2.203125 C 1.597656 -2.097656 1.84375 -1.960938 2.1875 -1.796875 C 2.53125 -1.628906 2.835938 -1.546875 3.109375 -1.546875 C 3.878906 -1.546875 4.265625 -1.8125 4.265625 -2.34375 C 4.265625 -2.445312 4.234375 -2.546875 4.171875 -2.640625 C 4.117188 -2.734375 4.019531 -2.828125 3.875 -2.921875 C 3.738281 -3.015625 3.617188 -3.085938 3.515625 -3.140625 C 3.410156 -3.203125 3.234375 -3.289062 2.984375 -3.40625 C 2.742188 -3.519531 2.566406 -3.601562 2.453125 -3.65625 C 1.960938 -3.894531 1.582031 -4.191406 1.3125 -4.546875 C 1.050781 -4.910156 0.921875 -5.300781 0.921875 -5.71875 C 0.921875 -6.4375 1.1875 -7.023438 1.71875 -7.484375 C 2.25 -7.941406 2.859375 -8.171875 3.546875 -8.171875 Z M 3.546875 -8.171875 "/></g></g></g></svg>