<svg xmlns="http://www.w3.org/2000/svg" xmlns:xlink="http://www.w3.org/1999/xlink" width="500" zoomAndPan="magnify" viewBox="0 0 375 374.999991" height="500" preserveAspectRatio="xMidYMid meet" version="1.0"><defs><g/><clipPath id="9dc892e580"><path d="M 37.5 225 L 150 225 L 150 337.5 L 37.5 337.5 Z M 37.5 225 " clip-rule="nonzero"/></clipPath><clipPath id="ffc33885c9"><path d="M 225 225 L 337.5 225 L 337.5 337.5 L 225 337.5 Z M 225 225 " clip-rule="nonzero"/></clipPath><clipPath id="82e2ed71cd"><path d="M 251.167969 120.539062 L 311.167969 120.539062 L 311.167969 179 L 251.167969 179 Z M 251.167969 120.539062 " clip-rule="nonzero"/></clipPath><clipPath id="86a4b0c2dc"><path d="M 275 169 L 287 169 L 287 180.539062 L 275 180.539062 Z M 275 169 " clip-rule="nonzero"/></clipPath><clipPath id="47bf1eff28"><path d="M 100 131 L 131.738281 131 L 131.738281 178 L 100 178 Z M 100 131 " clip-rule="nonzero"/></clipPath><clipPath id="7bbc1104f3"><path d="M 55.761719 131 L 87 131 L 87 178 L 55.761719 178 Z M 55.761719 131 " clip-rule="nonzero"/></clipPath></defs><g clip-path="url(#9dc892e580)"><path fill="#a70000" d="M 37.5 225 L 150 225 L 150 337.5 L 37.5 337.5 Z M 37.5 225 " fill-opacity="1" fill-rule="nonzero"/></g><g fill="#000000" fill-opacity="1"><g transform="translate(148.469167, 60.274779)"><g><path d="M 5.234375 -8.046875 L 5.234375 -6.4375 L 2.421875 -6.4375 L 2.421875 -4.84375 L 5.015625 -4.84375 L 5.015625 -3.234375 L 2.421875 -3.234375 L 2.421875 0 L 0.578125 0 L 0.578125 -8.046875 Z M 5.234375 -8.046875 "/></g></g></g><g fill="#000000" fill-opacity="1"><g transform="translate(158.092832, 60.274779)"><g><path d="M 0.21875 -4.03125 C 0.21875 -5.1875 0.613281 -6.164062 1.40625 -6.96875 C 2.207031 -7.78125 3.164062 -8.1875 4.28125 -8.1875 C 5.40625 -8.1875 6.359375 -7.785156 7.140625 -6.984375 C 7.929688 -6.179688 8.328125 -5.195312 8.328125 -4.03125 C 8.328125 -2.851562 7.9375 -1.863281 7.15625 -1.0625 C 6.382812 -0.257812 5.425781 0.140625 4.28125 0.140625 C 3.101562 0.140625 2.128906 -0.253906 1.359375 -1.046875 C 0.597656 -1.847656 0.21875 -2.84375 0.21875 -4.03125 Z M 2.203125 -4.03125 C 2.203125 -3.601562 2.265625 -3.210938 2.390625 -2.859375 C 2.523438 -2.515625 2.753906 -2.222656 3.078125 -1.984375 C 3.398438 -1.742188 3.800781 -1.625 4.28125 -1.625 C 4.957031 -1.625 5.46875 -1.859375 5.8125 -2.328125 C 6.164062 -2.796875 6.34375 -3.363281 6.34375 -4.03125 C 6.34375 -4.6875 6.164062 -5.25 5.8125 -5.71875 C 5.457031 -6.1875 4.945312 -6.421875 4.28125 -6.421875 C 3.613281 -6.421875 3.097656 -6.1875 2.734375 -5.71875 C 2.378906 -5.25 2.203125 -4.6875 2.203125 -4.03125 Z M 2.203125 -4.03125 "/></g></g></g><g fill="#000000" fill-opacity="1"><g transform="translate(170.735334, 60.274779)"><g><path d="M 2.421875 -4.984375 L 2.421875 0 L 0.578125 0 L 0.578125 -8.046875 L 2.421875 -8.046875 L 5.609375 -3.046875 L 5.640625 -3.046875 L 5.640625 -8.046875 L 7.46875 -8.046875 L 7.46875 0 L 5.640625 0 L 2.4375 -4.984375 Z M 2.421875 -4.984375 "/></g></g></g><g fill="#000000" fill-opacity="1"><g transform="translate(182.413545, 60.274779)"><g><path d="M 0.078125 -6.4375 L 0.078125 -8.046875 L 5.734375 -8.046875 L 5.734375 -6.4375 L 3.828125 -6.4375 L 3.828125 0 L 1.984375 0 L 1.984375 -6.4375 Z M 0.078125 -6.4375 "/></g></g></g><g fill="#000000" fill-opacity="1"><g transform="translate(192.319616, 60.274779)"><g/></g></g><g fill="#000000" fill-opacity="1"><g transform="translate(199.080247, 60.274779)"><g><path d="M 6.765625 -8.046875 L 6.765625 -2.859375 C 6.765625 -1.867188 6.5 -1.117188 5.96875 -0.609375 C 5.4375 -0.109375 4.65625 0.140625 3.625 0.140625 C 2.601562 0.140625 1.820312 -0.109375 1.28125 -0.609375 C 0.75 -1.117188 0.484375 -1.867188 0.484375 -2.859375 L 0.484375 -8.046875 L 2.328125 -8.046875 L 2.328125 -3.390625 C 2.328125 -2.742188 2.425781 -2.289062 2.625 -2.03125 C 2.832031 -1.78125 3.164062 -1.65625 3.625 -1.65625 C 4.082031 -1.65625 4.414062 -1.78125 4.625 -2.03125 C 4.832031 -2.289062 4.9375 -2.742188 4.9375 -3.390625 L 4.9375 -8.046875 Z M 6.765625 -8.046875 "/></g></g></g><g fill="#000000" fill-opacity="1"><g transform="translate(210.232731, 60.274779)"><g><path d="M 3.546875 -8.1875 C 3.984375 -8.1875 4.410156 -8.125 4.828125 -8 C 5.242188 -7.875 5.550781 -7.75 5.75 -7.625 L 6.046875 -7.421875 L 5.296875 -5.96875 C 5.242188 -6.007812 5.164062 -6.054688 5.0625 -6.109375 C 4.957031 -6.171875 4.757812 -6.253906 4.46875 -6.359375 C 4.1875 -6.460938 3.921875 -6.515625 3.671875 -6.515625 C 3.367188 -6.515625 3.132812 -6.445312 2.96875 -6.3125 C 2.800781 -6.1875 2.71875 -6.015625 2.71875 -5.796875 C 2.71875 -5.691406 2.753906 -5.59375 2.828125 -5.5 C 2.910156 -5.40625 3.046875 -5.300781 3.234375 -5.1875 C 3.421875 -5.082031 3.585938 -5 3.734375 -4.9375 C 3.878906 -4.875 4.097656 -4.773438 4.390625 -4.640625 C 4.910156 -4.421875 5.351562 -4.117188 5.71875 -3.734375 C 6.09375 -3.359375 6.28125 -2.929688 6.28125 -2.453125 C 6.28125 -1.984375 6.195312 -1.578125 6.03125 -1.234375 C 5.863281 -0.890625 5.632812 -0.617188 5.34375 -0.421875 C 5.050781 -0.234375 4.726562 -0.09375 4.375 0 C 4.03125 0.09375 3.65625 0.140625 3.25 0.140625 C 2.894531 0.140625 2.546875 0.101562 2.203125 0.03125 C 1.867188 -0.03125 1.585938 -0.113281 1.359375 -0.21875 C 1.140625 -0.332031 0.9375 -0.441406 0.75 -0.546875 C 0.570312 -0.648438 0.4375 -0.738281 0.34375 -0.8125 L 0.21875 -0.921875 L 1.140625 -2.453125 C 1.210938 -2.390625 1.316406 -2.304688 1.453125 -2.203125 C 1.597656 -2.109375 1.84375 -1.972656 2.1875 -1.796875 C 2.53125 -1.628906 2.835938 -1.546875 3.109375 -1.546875 C 3.878906 -1.546875 4.265625 -1.8125 4.265625 -2.34375 C 4.265625 -2.445312 4.238281 -2.546875 4.1875 -2.640625 C 4.132812 -2.734375 4.035156 -2.828125 3.890625 -2.921875 C 3.753906 -3.023438 3.628906 -3.101562 3.515625 -3.15625 C 3.410156 -3.207031 3.234375 -3.289062 2.984375 -3.40625 C 2.742188 -3.519531 2.566406 -3.609375 2.453125 -3.671875 C 1.960938 -3.910156 1.582031 -4.207031 1.3125 -4.5625 C 1.050781 -4.925781 0.921875 -5.316406 0.921875 -5.734375 C 0.921875 -6.453125 1.1875 -7.039062 1.71875 -7.5 C 2.257812 -7.957031 2.867188 -8.1875 3.546875 -8.1875 Z M 3.546875 -8.1875 "/></g></g></g><g fill="#000000" fill-opacity="1"><g transform="translate(220.878906, 60.274779)"><g><path d="M 5.1875 -8.046875 L 5.1875 -6.4375 L 2.421875 -6.4375 L 2.421875 -4.84375 L 5.0625 -4.84375 L 5.0625 -3.234375 L 2.421875 -3.234375 L 2.421875 -1.609375 L 5.1875 -1.609375 L 5.1875 0 L 0.578125 0 L 0.578125 -8.046875 Z M 5.1875 -8.046875 "/></g></g></g><g fill="#000000" fill-opacity="1"><g transform="translate(57.68399, 90.991697)"><g><path d="M 4.375 -14.5625 L 4.375 -2.90625 L 9.390625 -2.90625 L 9.390625 0 L 1.0625 0 L 1.0625 -14.5625 Z M 4.375 -14.5625 "/></g></g></g><g fill="#000000" fill-opacity="1"><g transform="translate(75.089207, 90.991697)"><g><path d="M 9.390625 -14.5625 L 9.390625 -11.65625 L 4.375 -11.65625 L 4.375 -8.75 L 9.1875 -8.75 L 9.1875 -5.84375 L 4.375 -5.84375 L 4.375 -2.90625 L 9.390625 -2.90625 L 9.390625 0 L 1.0625 0 L 1.0625 -14.5625 Z M 9.390625 -14.5625 "/></g></g></g><g fill="#000000" fill-opacity="1"><g transform="translate(92.865082, 90.991697)"><g><path d="M 8.453125 -14.5625 L 14.34375 0 L 10.765625 0 L 9.6875 -2.90625 L 4.15625 -2.90625 L 3.078125 0 L -0.5 0 L 5.390625 -14.5625 Z M 8.5625 -5.828125 L 6.9375 -10.0625 L 6.90625 -10.0625 L 5.28125 -5.828125 Z M 8.5625 -5.828125 "/></g></g></g><g fill="#000000" fill-opacity="1"><g transform="translate(114.135225, 90.991697)"><g><path d="M 14.234375 -8.15625 L 14.234375 -5 C 13.859375 -3.269531 13.035156 -1.957031 11.765625 -1.0625 C 10.492188 -0.175781 9.070312 0.265625 7.5 0.265625 C 5.539062 0.265625 3.867188 -0.46875 2.484375 -1.9375 C 1.097656 -3.414062 0.40625 -5.195312 0.40625 -7.28125 C 0.40625 -9.394531 1.082031 -11.179688 2.4375 -12.640625 C 3.789062 -14.097656 5.476562 -14.828125 7.5 -14.828125 C 9.863281 -14.828125 11.738281 -14 13.125 -12.34375 L 10.953125 -9.953125 C 10.171875 -11.203125 9.085938 -11.828125 7.703125 -11.828125 C 6.671875 -11.828125 5.789062 -11.378906 5.0625 -10.484375 C 4.34375 -9.597656 3.984375 -8.53125 3.984375 -7.28125 C 3.984375 -6.039062 4.34375 -4.984375 5.0625 -4.109375 C 5.789062 -3.234375 6.671875 -2.796875 7.703125 -2.796875 C 8.546875 -2.796875 9.28125 -3.050781 9.90625 -3.5625 C 10.539062 -4.070312 10.859375 -4.75 10.859375 -5.59375 L 7.5 -5.59375 L 7.5 -8.15625 Z M 14.234375 -8.15625 "/></g></g></g><g fill="#000000" fill-opacity="1"><g transform="translate(136.199528, 90.991697)"><g><path d="M 12.25 -14.5625 L 12.25 -5.171875 C 12.25 -3.378906 11.765625 -2.023438 10.796875 -1.109375 C 9.835938 -0.191406 8.425781 0.265625 6.5625 0.265625 C 4.707031 0.265625 3.296875 -0.191406 2.328125 -1.109375 C 1.367188 -2.023438 0.890625 -3.378906 0.890625 -5.171875 L 0.890625 -14.5625 L 4.203125 -14.5625 L 4.203125 -6.140625 C 4.203125 -4.960938 4.382812 -4.144531 4.75 -3.6875 C 5.125 -3.226562 5.726562 -3 6.5625 -3 C 7.40625 -3 8.007812 -3.226562 8.375 -3.6875 C 8.75 -4.144531 8.9375 -4.960938 8.9375 -6.140625 L 8.9375 -14.5625 Z M 12.25 -14.5625 "/></g></g></g><g fill="#000000" fill-opacity="1"><g transform="translate(156.763763, 90.991697)"><g><path d="M 9.390625 -14.5625 L 9.390625 -11.65625 L 4.375 -11.65625 L 4.375 -8.75 L 9.1875 -8.75 L 9.1875 -5.84375 L 4.375 -5.84375 L 4.375 -2.90625 L 9.390625 -2.90625 L 9.390625 0 L 1.0625 0 L 1.0625 -14.5625 Z M 9.390625 -14.5625 "/></g></g></g><g fill="#000000" fill-opacity="1"><g transform="translate(174.433705, 90.991697)"><g/></g></g><g fill="#000000" fill-opacity="1"><g transform="translate(186.332567, 90.991697)"><g><path d="M 6.421875 -14.828125 C 7.210938 -14.828125 7.984375 -14.710938 8.734375 -14.484375 C 9.492188 -14.253906 10.054688 -14.03125 10.421875 -13.8125 L 10.953125 -13.453125 L 9.609375 -10.8125 C 9.503906 -10.875 9.351562 -10.960938 9.15625 -11.078125 C 8.96875 -11.191406 8.613281 -11.34375 8.09375 -11.53125 C 7.582031 -11.71875 7.101562 -11.8125 6.65625 -11.8125 C 6.101562 -11.8125 5.675781 -11.691406 5.375 -11.453125 C 5.070312 -11.222656 4.921875 -10.90625 4.921875 -10.5 C 4.921875 -10.300781 4.988281 -10.113281 5.125 -9.9375 C 5.269531 -9.769531 5.515625 -9.585938 5.859375 -9.390625 C 6.203125 -9.203125 6.503906 -9.046875 6.765625 -8.921875 C 7.023438 -8.804688 7.425781 -8.632812 7.96875 -8.40625 C 8.90625 -8 9.707031 -7.453125 10.375 -6.765625 C 11.039062 -6.078125 11.375 -5.300781 11.375 -4.4375 C 11.375 -3.59375 11.222656 -2.859375 10.921875 -2.234375 C 10.617188 -1.617188 10.207031 -1.132812 9.6875 -0.78125 C 9.164062 -0.425781 8.582031 -0.164062 7.9375 0 C 7.300781 0.175781 6.613281 0.265625 5.875 0.265625 C 5.238281 0.265625 4.613281 0.195312 4 0.0625 C 3.394531 -0.0625 2.882812 -0.21875 2.46875 -0.40625 C 2.0625 -0.601562 1.691406 -0.796875 1.359375 -0.984375 C 1.023438 -1.171875 0.785156 -1.332031 0.640625 -1.46875 L 0.40625 -1.65625 L 2.0625 -4.453125 C 2.207031 -4.328125 2.398438 -4.171875 2.640625 -3.984375 C 2.890625 -3.804688 3.328125 -3.566406 3.953125 -3.265625 C 4.585938 -2.960938 5.144531 -2.8125 5.625 -2.8125 C 7.03125 -2.8125 7.734375 -3.285156 7.734375 -4.234375 C 7.734375 -4.429688 7.679688 -4.613281 7.578125 -4.78125 C 7.484375 -4.957031 7.304688 -5.128906 7.046875 -5.296875 C 6.796875 -5.472656 6.570312 -5.609375 6.375 -5.703125 C 6.1875 -5.804688 5.867188 -5.960938 5.421875 -6.171875 C 4.984375 -6.378906 4.660156 -6.535156 4.453125 -6.640625 C 3.566406 -7.078125 2.878906 -7.617188 2.390625 -8.265625 C 1.910156 -8.921875 1.671875 -9.625 1.671875 -10.375 C 1.671875 -11.6875 2.15625 -12.753906 3.125 -13.578125 C 4.09375 -14.410156 5.191406 -14.828125 6.421875 -14.828125 Z M 6.421875 -14.828125 "/></g></g></g><g fill="#000000" fill-opacity="1"><g transform="translate(205.626128, 90.991697)"><g><path d="M 1.0625 -14.5625 L 6.375 -14.5625 C 7.851562 -14.5625 9.050781 -14.175781 9.96875 -13.40625 C 10.894531 -12.644531 11.359375 -11.535156 11.359375 -10.078125 C 11.359375 -8.617188 10.890625 -7.472656 9.953125 -6.640625 C 9.023438 -5.816406 7.832031 -5.40625 6.375 -5.40625 L 4.375 -5.40625 L 4.375 0 L 1.0625 0 Z M 4.375 -8.046875 L 5.3125 -8.046875 C 6.050781 -8.046875 6.660156 -8.195312 7.140625 -8.5 C 7.617188 -8.800781 7.859375 -9.289062 7.859375 -9.96875 C 7.859375 -10.664062 7.617188 -11.164062 7.140625 -11.46875 C 6.660156 -11.769531 6.050781 -11.921875 5.3125 -11.921875 L 4.375 -11.921875 Z M 4.375 -8.046875 "/></g></g></g><g fill="#000000" fill-opacity="1"><g transform="translate(223.683818, 90.991697)"><g><path d="M 8.453125 -14.5625 L 14.34375 0 L 10.765625 0 L 9.6875 -2.90625 L 4.15625 -2.90625 L 3.078125 0 L -0.5 0 L 5.390625 -14.5625 Z M 8.5625 -5.828125 L 6.9375 -10.0625 L 6.90625 -10.0625 L 5.28125 -5.828125 Z M 8.5625 -5.828125 "/></g></g></g><g fill="#000000" fill-opacity="1"><g transform="translate(244.953966, 90.991697)"><g><path d="M 1.0625 -14.5625 L 6.265625 -14.5625 C 7.671875 -14.5625 8.8125 -14.1875 9.6875 -13.4375 C 10.570312 -12.695312 11.015625 -11.628906 11.015625 -10.234375 C 11.015625 -9.171875 10.742188 -8.273438 10.203125 -7.546875 C 9.671875 -6.828125 8.945312 -6.316406 8.03125 -6.015625 L 13.046875 0 L 8.828125 0 L 4.375 -5.75 L 4.375 0 L 1.0625 0 Z M 4.375 -8.109375 L 4.765625 -8.109375 C 5.066406 -8.109375 5.320312 -8.113281 5.53125 -8.125 C 5.75 -8.132812 5.992188 -8.171875 6.265625 -8.234375 C 6.535156 -8.304688 6.753906 -8.40625 6.921875 -8.53125 C 7.085938 -8.664062 7.226562 -8.859375 7.34375 -9.109375 C 7.457031 -9.359375 7.515625 -9.660156 7.515625 -10.015625 C 7.515625 -10.367188 7.457031 -10.664062 7.34375 -10.90625 C 7.226562 -11.15625 7.085938 -11.34375 6.921875 -11.46875 C 6.753906 -11.601562 6.535156 -11.703125 6.265625 -11.765625 C 5.992188 -11.835938 5.75 -11.878906 5.53125 -11.890625 C 5.320312 -11.910156 5.066406 -11.921875 4.765625 -11.921875 L 4.375 -11.921875 Z M 4.375 -8.109375 "/></g></g></g><g fill="#000000" fill-opacity="1"><g transform="translate(264.317814, 90.991697)"><g><path d="M 0.140625 -11.65625 L 0.140625 -14.5625 L 10.375 -14.5625 L 10.375 -11.65625 L 6.921875 -11.65625 L 6.921875 0 L 3.609375 0 L 3.609375 -11.65625 Z M 0.140625 -11.65625 "/></g></g></g><g fill="#000000" fill-opacity="1"><g transform="translate(281.422644, 90.991697)"><g><path d="M 8.453125 -14.5625 L 14.34375 0 L 10.765625 0 L 9.6875 -2.90625 L 4.15625 -2.90625 L 3.078125 0 L -0.5 0 L 5.390625 -14.5625 Z M 8.5625 -5.828125 L 6.9375 -10.0625 L 6.90625 -10.0625 L 5.28125 -5.828125 Z M 8.5625 -5.828125 "/></g></g></g><g fill="#000000" fill-opacity="1"><g transform="translate(302.692792, 90.991697)"><g><path d="M 4.375 -9.046875 L 4.375 0 L 1.0625 0 L 1.0625 -14.5625 L 4.375 -14.5625 L 10.171875 -5.53125 L 10.203125 -5.53125 L 10.203125 -14.5625 L 13.53125 -14.5625 L 13.53125 0 L 10.203125 0 L 4.421875 -9.046875 Z M 4.375 -9.046875 "/></g></g></g><g clip-path="url(#ffc33885c9)"><path fill="#000000" d="M 225 225 L 337.5 225 L 337.5 337.5 L 225 337.5 Z M 225 225 " fill-opacity="1" fill-rule="nonzero"/></g><g fill="#000000" fill-opacity="1"><g transform="translate(56.055116, 211.641301)"><g><path d="M 2.859375 -2.140625 L 2.3125 0 L 1.109375 0 L 1.65625 -2.140625 L 0.65625 -2.140625 L 0.96875 -3.3125 L 1.96875 -3.3125 L 2.34375 -4.734375 L 1.296875 -4.734375 L 1.609375 -5.921875 L 2.65625 -5.921875 L 3.203125 -8.046875 L 4.421875 -8.046875 L 3.859375 -5.921875 L 4.90625 -5.921875 L 5.46875 -8.046875 L 6.671875 -8.046875 L 6.125 -5.921875 L 7.125 -5.921875 L 6.8125 -4.734375 L 5.8125 -4.734375 L 5.4375 -3.3125 L 6.484375 -3.3125 L 6.171875 -2.140625 L 5.125 -2.140625 L 4.578125 0 L 3.359375 0 L 3.921875 -2.140625 Z M 4.234375 -3.3125 L 4.609375 -4.734375 L 3.546875 -4.734375 L 3.171875 -3.3125 Z M 4.234375 -3.3125 "/></g></g></g><g fill="#000000" fill-opacity="1"><g transform="translate(68.26914, 211.641301)"><g><path d="M 4.671875 -8.046875 L 7.921875 0 L 5.953125 0 L 5.359375 -1.609375 L 2.296875 -1.609375 L 1.703125 0 L -0.265625 0 L 2.96875 -8.046875 Z M 4.734375 -3.21875 L 3.828125 -5.5625 L 3.8125 -5.5625 L 2.921875 -3.21875 Z M 4.734375 -3.21875 "/></g></g></g><g fill="#000000" fill-opacity="1"><g transform="translate(80.005991, 211.641301)"><g><path d="M 6.953125 -8.046875 L 6.953125 -7.5 L 2.703125 0 L 0.53125 0 L 4.234375 -6.4375 L 0.78125 -6.4375 L 0.78125 -8.046875 Z M 6.953125 -8.046875 "/></g></g></g><g fill="#000000" fill-opacity="1"><g transform="translate(90.807974, 211.641301)"><g><path d="M 0.265625 -4.015625 C 0.265625 -5.335938 0.582031 -6.363281 1.21875 -7.09375 C 1.851562 -7.820312 2.628906 -8.1875 3.546875 -8.1875 C 4.472656 -8.1875 5.25 -7.820312 5.875 -7.09375 C 6.5 -6.363281 6.8125 -5.335938 6.8125 -4.015625 C 6.8125 -3.296875 6.722656 -2.660156 6.546875 -2.109375 C 6.367188 -1.566406 6.125 -1.132812 5.8125 -0.8125 C 5.507812 -0.488281 5.164062 -0.25 4.78125 -0.09375 C 4.40625 0.0625 3.992188 0.140625 3.546875 0.140625 C 3.097656 0.140625 2.679688 0.0625 2.296875 -0.09375 C 1.921875 -0.25 1.578125 -0.488281 1.265625 -0.8125 C 0.953125 -1.132812 0.707031 -1.566406 0.53125 -2.109375 C 0.351562 -2.660156 0.265625 -3.296875 0.265625 -4.015625 Z M 2.125 -4.015625 C 2.125 -3.160156 2.242188 -2.519531 2.484375 -2.09375 C 2.734375 -1.675781 3.085938 -1.46875 3.546875 -1.46875 C 3.992188 -1.46875 4.34375 -1.675781 4.59375 -2.09375 C 4.84375 -2.519531 4.96875 -3.160156 4.96875 -4.015625 C 4.96875 -4.828125 4.84375 -5.457031 4.59375 -5.90625 C 4.34375 -6.351562 3.992188 -6.578125 3.546875 -6.578125 C 3.109375 -6.578125 2.757812 -6.347656 2.5 -5.890625 C 2.25 -5.441406 2.125 -4.816406 2.125 -4.015625 Z M 2.125 -4.015625 "/></g></g></g><g fill="#000000" fill-opacity="1"><g transform="translate(101.989752, 211.641301)"><g><path d="M 0.265625 -4.015625 C 0.265625 -5.335938 0.582031 -6.363281 1.21875 -7.09375 C 1.851562 -7.820312 2.628906 -8.1875 3.546875 -8.1875 C 4.472656 -8.1875 5.25 -7.820312 5.875 -7.09375 C 6.5 -6.363281 6.8125 -5.335938 6.8125 -4.015625 C 6.8125 -3.296875 6.722656 -2.660156 6.546875 -2.109375 C 6.367188 -1.566406 6.125 -1.132812 5.8125 -0.8125 C 5.507812 -0.488281 5.164062 -0.25 4.78125 -0.09375 C 4.40625 0.0625 3.992188 0.140625 3.546875 0.140625 C 3.097656 0.140625 2.679688 0.0625 2.296875 -0.09375 C 1.921875 -0.25 1.578125 -0.488281 1.265625 -0.8125 C 0.953125 -1.132812 0.707031 -1.566406 0.53125 -2.109375 C 0.351562 -2.660156 0.265625 -3.296875 0.265625 -4.015625 Z M 2.125 -4.015625 C 2.125 -3.160156 2.242188 -2.519531 2.484375 -2.09375 C 2.734375 -1.675781 3.085938 -1.46875 3.546875 -1.46875 C 3.992188 -1.46875 4.34375 -1.675781 4.59375 -2.09375 C 4.84375 -2.519531 4.96875 -3.160156 4.96875 -4.015625 C 4.96875 -4.828125 4.84375 -5.457031 4.59375 -5.90625 C 4.34375 -6.351562 3.992188 -6.578125 3.546875 -6.578125 C 3.109375 -6.578125 2.757812 -6.347656 2.5 -5.890625 C 2.25 -5.441406 2.125 -4.816406 2.125 -4.015625 Z M 2.125 -4.015625 "/></g></g></g><g fill="#000000" fill-opacity="1"><g transform="translate(113.171533, 211.641301)"><g><path d="M 0.265625 -4.015625 C 0.265625 -5.335938 0.582031 -6.363281 1.21875 -7.09375 C 1.851562 -7.820312 2.628906 -8.1875 3.546875 -8.1875 C 4.472656 -8.1875 5.25 -7.820312 5.875 -7.09375 C 6.5 -6.363281 6.8125 -5.335938 6.8125 -4.015625 C 6.8125 -3.296875 6.722656 -2.660156 6.546875 -2.109375 C 6.367188 -1.566406 6.125 -1.132812 5.8125 -0.8125 C 5.507812 -0.488281 5.164062 -0.25 4.78125 -0.09375 C 4.40625 0.0625 3.992188 0.140625 3.546875 0.140625 C 3.097656 0.140625 2.679688 0.0625 2.296875 -0.09375 C 1.921875 -0.25 1.578125 -0.488281 1.265625 -0.8125 C 0.953125 -1.132812 0.707031 -1.566406 0.53125 -2.109375 C 0.351562 -2.660156 0.265625 -3.296875 0.265625 -4.015625 Z M 2.125 -4.015625 C 2.125 -3.160156 2.242188 -2.519531 2.484375 -2.09375 C 2.734375 -1.675781 3.085938 -1.46875 3.546875 -1.46875 C 3.992188 -1.46875 4.34375 -1.675781 4.59375 -2.09375 C 4.84375 -2.519531 4.96875 -3.160156 4.96875 -4.015625 C 4.96875 -4.828125 4.84375 -5.457031 4.59375 -5.90625 C 4.34375 -6.351562 3.992188 -6.578125 3.546875 -6.578125 C 3.109375 -6.578125 2.757812 -6.347656 2.5 -5.890625 C 2.25 -5.441406 2.125 -4.816406 2.125 -4.015625 Z M 2.125 -4.015625 "/></g></g></g><g fill="#000000" fill-opacity="1"><g transform="translate(124.353314, 211.641301)"><g><path d="M 0.265625 -4.015625 C 0.265625 -5.335938 0.582031 -6.363281 1.21875 -7.09375 C 1.851562 -7.820312 2.628906 -8.1875 3.546875 -8.1875 C 4.472656 -8.1875 5.25 -7.820312 5.875 -7.09375 C 6.5 -6.363281 6.8125 -5.335938 6.8125 -4.015625 C 6.8125 -3.296875 6.722656 -2.660156 6.546875 -2.109375 C 6.367188 -1.566406 6.125 -1.132812 5.8125 -0.8125 C 5.507812 -0.488281 5.164062 -0.25 4.78125 -0.09375 C 4.40625 0.0625 3.992188 0.140625 3.546875 0.140625 C 3.097656 0.140625 2.679688 0.0625 2.296875 -0.09375 C 1.921875 -0.25 1.578125 -0.488281 1.265625 -0.8125 C 0.953125 -1.132812 0.707031 -1.566406 0.53125 -2.109375 C 0.351562 -2.660156 0.265625 -3.296875 0.265625 -4.015625 Z M 2.125 -4.015625 C 2.125 -3.160156 2.242188 -2.519531 2.484375 -2.09375 C 2.734375 -1.675781 3.085938 -1.46875 3.546875 -1.46875 C 3.992188 -1.46875 4.34375 -1.675781 4.59375 -2.09375 C 4.84375 -2.519531 4.96875 -3.160156 4.96875 -4.015625 C 4.96875 -4.828125 4.84375 -5.457031 4.59375 -5.90625 C 4.34375 -6.351562 3.992188 -6.578125 3.546875 -6.578125 C 3.109375 -6.578125 2.757812 -6.347656 2.5 -5.890625 C 2.25 -5.441406 2.125 -4.816406 2.125 -4.015625 Z M 2.125 -4.015625 "/></g></g></g><g fill="#000000" fill-opacity="1"><g transform="translate(243.637151, 211.641301)"><g><path d="M 2.859375 -2.140625 L 2.3125 0 L 1.109375 0 L 1.65625 -2.140625 L 0.65625 -2.140625 L 0.96875 -3.3125 L 1.96875 -3.3125 L 2.34375 -4.734375 L 1.296875 -4.734375 L 1.609375 -5.921875 L 2.65625 -5.921875 L 3.203125 -8.046875 L 4.421875 -8.046875 L 3.859375 -5.921875 L 4.90625 -5.921875 L 5.46875 -8.046875 L 6.671875 -8.046875 L 6.125 -5.921875 L 7.125 -5.921875 L 6.8125 -4.734375 L 5.8125 -4.734375 L 5.4375 -3.3125 L 6.484375 -3.3125 L 6.171875 -2.140625 L 5.125 -2.140625 L 4.578125 0 L 3.359375 0 L 3.921875 -2.140625 Z M 4.234375 -3.3125 L 4.609375 -4.734375 L 3.546875 -4.734375 L 3.171875 -3.3125 Z M 4.234375 -3.3125 "/></g></g></g><g fill="#000000" fill-opacity="1"><g transform="translate(255.851175, 211.641301)"><g><path d="M 0.265625 -4.015625 C 0.265625 -5.335938 0.582031 -6.363281 1.21875 -7.09375 C 1.851562 -7.820312 2.628906 -8.1875 3.546875 -8.1875 C 4.472656 -8.1875 5.25 -7.820312 5.875 -7.09375 C 6.5 -6.363281 6.8125 -5.335938 6.8125 -4.015625 C 6.8125 -3.296875 6.722656 -2.660156 6.546875 -2.109375 C 6.367188 -1.566406 6.125 -1.132812 5.8125 -0.8125 C 5.507812 -0.488281 5.164062 -0.25 4.78125 -0.09375 C 4.40625 0.0625 3.992188 0.140625 3.546875 0.140625 C 3.097656 0.140625 2.679688 0.0625 2.296875 -0.09375 C 1.921875 -0.25 1.578125 -0.488281 1.265625 -0.8125 C 0.953125 -1.132812 0.707031 -1.566406 0.53125 -2.109375 C 0.351562 -2.660156 0.265625 -3.296875 0.265625 -4.015625 Z M 2.125 -4.015625 C 2.125 -3.160156 2.242188 -2.519531 2.484375 -2.09375 C 2.734375 -1.675781 3.085938 -1.46875 3.546875 -1.46875 C 3.992188 -1.46875 4.34375 -1.675781 4.59375 -2.09375 C 4.84375 -2.519531 4.96875 -3.160156 4.96875 -4.015625 C 4.96875 -4.828125 4.84375 -5.457031 4.59375 -5.90625 C 4.34375 -6.351562 3.992188 -6.578125 3.546875 -6.578125 C 3.109375 -6.578125 2.757812 -6.347656 2.5 -5.890625 C 2.25 -5.441406 2.125 -4.816406 2.125 -4.015625 Z M 2.125 -4.015625 "/></g></g></g><g fill="#000000" fill-opacity="1"><g transform="translate(267.032953, 211.641301)"><g><path d="M 0.265625 -4.015625 C 0.265625 -5.335938 0.582031 -6.363281 1.21875 -7.09375 C 1.851562 -7.820312 2.628906 -8.1875 3.546875 -8.1875 C 4.472656 -8.1875 5.25 -7.820312 5.875 -7.09375 C 6.5 -6.363281 6.8125 -5.335938 6.8125 -4.015625 C 6.8125 -3.296875 6.722656 -2.660156 6.546875 -2.109375 C 6.367188 -1.566406 6.125 -1.132812 5.8125 -0.8125 C 5.507812 -0.488281 5.164062 -0.25 4.78125 -0.09375 C 4.40625 0.0625 3.992188 0.140625 3.546875 0.140625 C 3.097656 0.140625 2.679688 0.0625 2.296875 -0.09375 C 1.921875 -0.25 1.578125 -0.488281 1.265625 -0.8125 C 0.953125 -1.132812 0.707031 -1.566406 0.53125 -2.109375 C 0.351562 -2.660156 0.265625 -3.296875 0.265625 -4.015625 Z M 2.125 -4.015625 C 2.125 -3.160156 2.242188 -2.519531 2.484375 -2.09375 C 2.734375 -1.675781 3.085938 -1.46875 3.546875 -1.46875 C 3.992188 -1.46875 4.34375 -1.675781 4.59375 -2.09375 C 4.84375 -2.519531 4.96875 -3.160156 4.96875 -4.015625 C 4.96875 -4.828125 4.84375 -5.457031 4.59375 -5.90625 C 4.34375 -6.351562 3.992188 -6.578125 3.546875 -6.578125 C 3.109375 -6.578125 2.757812 -6.347656 2.5 -5.890625 C 2.25 -5.441406 2.125 -4.816406 2.125 -4.015625 Z M 2.125 -4.015625 "/></g></g></g><g fill="#000000" fill-opacity="1"><g transform="translate(278.214731, 211.641301)"><g><path d="M 0.265625 -4.015625 C 0.265625 -5.335938 0.582031 -6.363281 1.21875 -7.09375 C 1.851562 -7.820312 2.628906 -8.1875 3.546875 -8.1875 C 4.472656 -8.1875 5.25 -7.820312 5.875 -7.09375 C 6.5 -6.363281 6.8125 -5.335938 6.8125 -4.015625 C 6.8125 -3.296875 6.722656 -2.660156 6.546875 -2.109375 C 6.367188 -1.566406 6.125 -1.132812 5.8125 -0.8125 C 5.507812 -0.488281 5.164062 -0.25 4.78125 -0.09375 C 4.40625 0.0625 3.992188 0.140625 3.546875 0.140625 C 3.097656 0.140625 2.679688 0.0625 2.296875 -0.09375 C 1.921875 -0.25 1.578125 -0.488281 1.265625 -0.8125 C 0.953125 -1.132812 0.707031 -1.566406 0.53125 -2.109375 C 0.351562 -2.660156 0.265625 -3.296875 0.265625 -4.015625 Z M 2.125 -4.015625 C 2.125 -3.160156 2.242188 -2.519531 2.484375 -2.09375 C 2.734375 -1.675781 3.085938 -1.46875 3.546875 -1.46875 C 3.992188 -1.46875 4.34375 -1.675781 4.59375 -2.09375 C 4.84375 -2.519531 4.96875 -3.160156 4.96875 -4.015625 C 4.96875 -4.828125 4.84375 -5.457031 4.59375 -5.90625 C 4.34375 -6.351562 3.992188 -6.578125 3.546875 -6.578125 C 3.109375 -6.578125 2.757812 -6.347656 2.5 -5.890625 C 2.25 -5.441406 2.125 -4.816406 2.125 -4.015625 Z M 2.125 -4.015625 "/></g></g></g><g fill="#000000" fill-opacity="1"><g transform="translate(289.396509, 211.641301)"><g><path d="M 0.265625 -4.015625 C 0.265625 -5.335938 0.582031 -6.363281 1.21875 -7.09375 C 1.851562 -7.820312 2.628906 -8.1875 3.546875 -8.1875 C 4.472656 -8.1875 5.25 -7.820312 5.875 -7.09375 C 6.5 -6.363281 6.8125 -5.335938 6.8125 -4.015625 C 6.8125 -3.296875 6.722656 -2.660156 6.546875 -2.109375 C 6.367188 -1.566406 6.125 -1.132812 5.8125 -0.8125 C 5.507812 -0.488281 5.164062 -0.25 4.78125 -0.09375 C 4.40625 0.0625 3.992188 0.140625 3.546875 0.140625 C 3.097656 0.140625 2.679688 0.0625 2.296875 -0.09375 C 1.921875 -0.25 1.578125 -0.488281 1.265625 -0.8125 C 0.953125 -1.132812 0.707031 -1.566406 0.53125 -2.109375 C 0.351562 -2.660156 0.265625 -3.296875 0.265625 -4.015625 Z M 2.125 -4.015625 C 2.125 -3.160156 2.242188 -2.519531 2.484375 -2.09375 C 2.734375 -1.675781 3.085938 -1.46875 3.546875 -1.46875 C 3.992188 -1.46875 4.34375 -1.675781 4.59375 -2.09375 C 4.84375 -2.519531 4.96875 -3.160156 4.96875 -4.015625 C 4.96875 -4.828125 4.84375 -5.457031 4.59375 -5.90625 C 4.34375 -6.351562 3.992188 -6.578125 3.546875 -6.578125 C 3.109375 -6.578125 2.757812 -6.347656 2.5 -5.890625 C 2.25 -5.441406 2.125 -4.816406 2.125 -4.015625 Z M 2.125 -4.015625 "/></g></g></g><g fill="#000000" fill-opacity="1"><g transform="translate(300.57829, 211.641301)"><g><path d="M 0.265625 -4.015625 C 0.265625 -5.335938 0.582031 -6.363281 1.21875 -7.09375 C 1.851562 -7.820312 2.628906 -8.1875 3.546875 -8.1875 C 4.472656 -8.1875 5.25 -7.820312 5.875 -7.09375 C 6.5 -6.363281 6.8125 -5.335938 6.8125 -4.015625 C 6.8125 -3.296875 6.722656 -2.660156 6.546875 -2.109375 C 6.367188 -1.566406 6.125 -1.132812 5.8125 -0.8125 C 5.507812 -0.488281 5.164062 -0.25 4.78125 -0.09375 C 4.40625 0.0625 3.992188 0.140625 3.546875 0.140625 C 3.097656 0.140625 2.679688 0.0625 2.296875 -0.09375 C 1.921875 -0.25 1.578125 -0.488281 1.265625 -0.8125 C 0.953125 -1.132812 0.707031 -1.566406 0.53125 -2.109375 C 0.351562 -2.660156 0.265625 -3.296875 0.265625 -4.015625 Z M 2.125 -4.015625 C 2.125 -3.160156 2.242188 -2.519531 2.484375 -2.09375 C 2.734375 -1.675781 3.085938 -1.46875 3.546875 -1.46875 C 3.992188 -1.46875 4.34375 -1.675781 4.59375 -2.09375 C 4.84375 -2.519531 4.96875 -3.160156 4.96875 -4.015625 C 4.96875 -4.828125 4.84375 -5.457031 4.59375 -5.90625 C 4.34375 -6.351562 3.992188 -6.578125 3.546875 -6.578125 C 3.109375 -6.578125 2.757812 -6.347656 2.5 -5.890625 C 2.25 -5.441406 2.125 -4.816406 2.125 -4.015625 Z M 2.125 -4.015625 "/></g></g></g><g fill="#000000" fill-opacity="1"><g transform="translate(311.760071, 211.641301)"><g><path d="M 0.265625 -4.015625 C 0.265625 -5.335938 0.582031 -6.363281 1.21875 -7.09375 C 1.851562 -7.820312 2.628906 -8.1875 3.546875 -8.1875 C 4.472656 -8.1875 5.25 -7.820312 5.875 -7.09375 C 6.5 -6.363281 6.8125 -5.335938 6.8125 -4.015625 C 6.8125 -3.296875 6.722656 -2.660156 6.546875 -2.109375 C 6.367188 -1.566406 6.125 -1.132812 5.8125 -0.8125 C 5.507812 -0.488281 5.164062 -0.25 4.78125 -0.09375 C 4.40625 0.0625 3.992188 0.140625 3.546875 0.140625 C 3.097656 0.140625 2.679688 0.0625 2.296875 -0.09375 C 1.921875 -0.25 1.578125 -0.488281 1.265625 -0.8125 C 0.953125 -1.132812 0.707031 -1.566406 0.53125 -2.109375 C 0.351562 -2.660156 0.265625 -3.296875 0.265625 -4.015625 Z M 2.125 -4.015625 C 2.125 -3.160156 2.242188 -2.519531 2.484375 -2.09375 C 2.734375 -1.675781 3.085938 -1.46875 3.546875 -1.46875 C 3.992188 -1.46875 4.34375 -1.675781 4.59375 -2.09375 C 4.84375 -2.519531 4.96875 -3.160156 4.96875 -4.015625 C 4.96875 -4.828125 4.84375 -5.457031 4.59375 -5.90625 C 4.34375 -6.351562 3.992188 -6.578125 3.546875 -6.578125 C 3.109375 -6.578125 2.757812 -6.347656 2.5 -5.890625 C 2.25 -5.441406 2.125 -4.816406 2.125 -4.015625 Z M 2.125 -4.015625 "/></g></g></g><g clip-path="url(#82e2ed71cd)"><path fill="#000000" d="M 251.191406 150.5 C 251.191406 163.421875 259.402344 174.433594 270.871094 178.671875 C 270.445312 177.496094 270.199219 176.238281 270.199219 174.917969 C 270.199219 172.027344 271.324219 169.398438 273.148438 167.429688 C 266.835938 164.394531 262.460938 157.957031 262.460938 150.5 C 262.460938 140.140625 270.890625 131.710938 281.25 131.710938 C 291.609375 131.710938 300.039062 140.140625 300.039062 150.5 C 300.039062 157.957031 295.660156 164.394531 289.351562 167.429688 C 291.175781 169.398438 292.300781 172.027344 292.300781 174.917969 C 292.300781 176.238281 292.054688 177.496094 291.628906 178.671875 C 303.09375 174.433594 311.304688 163.421875 311.304688 150.5 C 311.304688 133.929688 297.824219 120.445312 281.25 120.445312 C 264.675781 120.445312 251.191406 133.929688 251.191406 150.5 Z M 251.191406 150.5 " fill-opacity="1" fill-rule="nonzero"/></g><g clip-path="url(#86a4b0c2dc)"><path fill="#a70000" d="M 286.875 174.917969 C 286.875 178.019531 284.351562 180.542969 281.25 180.542969 C 278.148438 180.542969 275.625 178.019531 275.625 174.917969 C 275.625 171.8125 278.148438 169.289062 281.25 169.289062 C 284.351562 169.289062 286.875 171.8125 286.875 174.917969 Z M 286.875 174.917969 " fill-opacity="1" fill-rule="nonzero"/></g><g clip-path="url(#47bf1eff28)"><path fill="#a70000" d="M 131.769531 154.351562 L 110.050781 176.292969 C 105.855469 180.53125 97.238281 172.691406 102.292969 167.761719 L 116.035156 154.351562 L 101.847656 141.167969 C 97.53125 137.152344 105.53125 128.910156 109.828125 133.078125 Z M 131.769531 154.351562 " fill-opacity="1" fill-rule="nonzero"/></g><g clip-path="url(#7bbc1104f3)"><path fill="#a70000" d="M 55.730469 155.09375 L 77.449219 133.152344 C 81.644531 128.914062 90.261719 136.753906 85.207031 141.683594 L 71.464844 155.09375 L 85.648438 168.277344 C 89.96875 172.292969 81.96875 180.535156 77.671875 176.367188 Z M 55.730469 155.09375 " fill-opacity="1" fill-rule="nonzero"/></g></svg>