<svg xmlns="http://www.w3.org/2000/svg" xmlns:xlink="http://www.w3.org/1999/xlink" width="500" zoomAndPan="magnify" viewBox="0 0 375 374.999991" height="500" preserveAspectRatio="xMidYMid meet" version="1.0"><defs><clipPath id="cc9a7415ba"><path d="M 196 156 L 239.566406 156 L 239.566406 219 L 196 219 Z M 196 156 " clip-rule="nonzero"/></clipPath><clipPath id="cc6b28e5ab"><path d="M 135.46875 156 L 179 156 L 179 219 L 135.46875 219 Z M 135.46875 156 " clip-rule="nonzero"/></clipPath></defs><g clip-path="url(#cc9a7415ba)"><path fill="#a70000" d="M 239.824219 186.988281 L 209.941406 217.175781 C 204.171875 223.003906 192.316406 212.21875 199.269531 205.4375 L 218.175781 186.988281 L 198.660156 168.847656 C 192.71875 163.320312 203.726562 151.984375 209.636719 157.71875 Z M 239.824219 186.988281 " fill-opacity="1" fill-rule="nonzero"/></g><g clip-path="url(#cc6b28e5ab)"><path fill="#a70000" d="M 135.210938 188.003906 L 165.09375 157.820312 C 170.863281 151.988281 182.71875 162.773438 175.765625 169.558594 L 156.859375 188.003906 L 176.375 206.148438 C 182.316406 211.671875 171.308594 223.007812 165.398438 217.277344 Z M 135.210938 188.003906 " fill-opacity="1" fill-rule="nonzero"/></g></svg>