<svg xmlns="http://www.w3.org/2000/svg" xmlns:xlink="http://www.w3.org/1999/xlink" width="500" zoomAndPan="magnify" viewBox="0 0 375 374.999991" height="500" preserveAspectRatio="xMidYMid meet" version="1.0"><defs><clipPath id="fdfa1017c2"><path d="M 45.183594 45.382812 L 330 45.382812 L 330 321 L 45.183594 321 Z M 45.183594 45.382812 " clip-rule="nonzero"/></clipPath><clipPath id="24abb2e31c"><path d="M 160 276 L 215 276 L 215 329.632812 L 160 329.632812 Z M 160 276 " clip-rule="nonzero"/></clipPath><clipPath id="79abd9f66f"><path d="M 196 156 L 239.566406 156 L 239.566406 219 L 196 219 Z M 196 156 " clip-rule="nonzero"/></clipPath><clipPath id="c62b5ee8ce"><path d="M 135.46875 156 L 179 156 L 179 219 L 135.46875 219 Z M 135.46875 156 " clip-rule="nonzero"/></clipPath></defs><g clip-path="url(#fdfa1017c2)"><path fill="#000000" d="M 45.3125 187.527344 C 45.3125 248.652344 84.160156 300.738281 138.398438 320.792969 C 136.382812 315.234375 135.226562 309.269531 135.226562 303.027344 C 135.226562 289.355469 140.546875 276.929688 149.171875 267.601562 C 119.320312 253.253906 98.613281 222.804688 98.613281 187.527344 C 98.613281 138.519531 138.488281 98.648438 187.496094 98.648438 C 236.507812 98.648438 276.382812 138.519531 276.382812 187.527344 C 276.382812 222.804688 255.671875 253.253906 225.824219 267.601562 C 234.449219 276.929688 239.769531 289.351562 239.769531 303.027344 C 239.769531 309.269531 238.613281 315.234375 236.597656 320.792969 C 290.835938 300.738281 329.679688 248.652344 329.679688 187.527344 C 329.679688 109.128906 265.898438 45.347656 187.496094 45.347656 C 109.097656 45.347656 45.3125 109.128906 45.3125 187.527344 Z M 45.3125 187.527344 " fill-opacity="1" fill-rule="nonzero"/></g><g clip-path="url(#24abb2e31c)"><path fill="#a70000" d="M 214.113281 303.027344 C 214.113281 317.703125 202.171875 329.640625 187.496094 329.640625 C 172.824219 329.640625 160.882812 317.703125 160.882812 303.027344 C 160.882812 288.351562 172.824219 276.414062 187.496094 276.414062 C 202.171875 276.414062 214.113281 288.351562 214.113281 303.027344 Z M 214.113281 303.027344 " fill-opacity="1" fill-rule="nonzero"/></g><g clip-path="url(#79abd9f66f)"><path fill="#a70000" d="M 239.824219 186.988281 L 209.941406 217.175781 C 204.171875 223.003906 192.316406 212.21875 199.269531 205.4375 L 218.175781 186.988281 L 198.660156 168.847656 C 192.71875 163.320312 203.726562 151.984375 209.636719 157.71875 Z M 239.824219 186.988281 " fill-opacity="1" fill-rule="nonzero"/></g><g clip-path="url(#c62b5ee8ce)"><path fill="#a70000" d="M 135.210938 188.003906 L 165.09375 157.820312 C 170.863281 151.988281 182.71875 162.773438 175.765625 169.558594 L 156.859375 188.003906 L 176.375 206.148438 C 182.316406 211.671875 171.308594 223.007812 165.398438 217.277344 Z M 135.210938 188.003906 " fill-opacity="1" fill-rule="nonzero"/></g></svg>