<svg xmlns="http://www.w3.org/2000/svg" xmlns:xlink="http://www.w3.org/1999/xlink" width="500" zoomAndPan="magnify" viewBox="0 0 375 374.999991" height="500" preserveAspectRatio="xMidYMid meet" version="1.0"><defs><g/><clipPath id="2054aedc81"><path d="M 17 132.421875 L 97.222656 132.421875 L 97.222656 211 L 17 211 Z M 17 132.421875 " clip-rule="nonzero"/></clipPath><clipPath id="279f97ea71"><path d="M 49 197 L 65 197 L 65 212.671875 L 49 212.671875 Z M 49 197 " clip-rule="nonzero"/></clipPath><clipPath id="69655ef37a"><path d="M 59 163 L 71.988281 163 L 71.988281 182 L 59 182 Z M 59 163 " clip-rule="nonzero"/></clipPath><clipPath id="c42b9c9729"><path d="M 42.417969 163 L 55 163 L 55 182 L 42.417969 182 Z M 42.417969 163 " clip-rule="nonzero"/></clipPath></defs><g fill="#a70000" fill-opacity="1"><g transform="translate(74.254439, 207.444646)"><g/></g></g><g fill="#a70000" fill-opacity="1"><g transform="translate(108.818378, 207.444646)"><g><path d="M 5.25 -72.15625 L 31.046875 -72.15625 C 37.984375 -72.15625 43.640625 -70.300781 48.015625 -66.59375 C 52.390625 -62.894531 54.578125 -57.609375 54.578125 -50.734375 C 54.578125 -45.421875 53.25 -40.972656 50.59375 -37.390625 C 47.945312 -33.804688 44.347656 -31.285156 39.796875 -29.828125 L 64.640625 0 L 43.734375 0 L 21.6875 -28.515625 L 21.6875 0 L 5.25 0 Z M 21.6875 -40.140625 L 23.609375 -40.140625 C 25.128906 -40.140625 26.414062 -40.171875 27.46875 -40.234375 C 28.519531 -40.296875 29.710938 -40.5 31.046875 -40.84375 C 32.390625 -41.195312 33.46875 -41.691406 34.28125 -42.328125 C 35.101562 -42.972656 35.804688 -43.90625 36.390625 -45.125 C 36.972656 -46.351562 37.265625 -47.84375 37.265625 -49.59375 C 37.265625 -51.34375 36.972656 -52.828125 36.390625 -54.046875 C 35.804688 -55.273438 35.101562 -56.207031 34.28125 -56.84375 C 33.46875 -57.488281 32.390625 -57.984375 31.046875 -58.328125 C 29.710938 -58.679688 28.519531 -58.890625 27.46875 -58.953125 C 26.414062 -59.015625 25.128906 -59.046875 23.609375 -59.046875 L 21.6875 -59.046875 Z M 21.6875 -40.140625 "/></g></g></g><g fill="#a70000" fill-opacity="1"><g transform="translate(182.110403, 207.444646)"><g><path d="M 5.25 -72.15625 L 27.640625 -72.15625 C 34.398438 -72.15625 39.789062 -70.710938 43.8125 -67.828125 C 47.84375 -64.941406 49.859375 -60.265625 49.859375 -53.796875 C 49.859375 -46.566406 46.851562 -41.40625 40.84375 -38.3125 C 51.113281 -36.5 56.25 -30.4375 56.25 -20.125 C 56.25 -14.050781 54.144531 -9.175781 49.9375 -5.5 C 45.738281 -1.832031 39.96875 0 32.625 0 L 5.25 0 Z M 21.6875 -43.90625 L 23 -43.90625 C 26.675781 -43.90625 29.414062 -44.546875 31.21875 -45.828125 C 33.03125 -47.117188 33.9375 -49.21875 33.9375 -52.125 C 33.9375 -57.03125 30.289062 -59.484375 23 -59.484375 L 21.6875 -59.484375 Z M 21.6875 -12.6875 L 26.859375 -12.6875 C 34.898438 -12.6875 38.921875 -15.367188 38.921875 -20.734375 C 38.921875 -23.941406 37.914062 -26.242188 35.90625 -27.640625 C 33.894531 -29.035156 30.878906 -29.734375 26.859375 -29.734375 L 21.6875 -29.734375 Z M 21.6875 -12.6875 "/></g></g></g><g fill="#a70000" fill-opacity="1"><g transform="translate(251.029467, 207.444646)"><g><path d="M 21.6875 -72.15625 L 21.6875 0 L 5.25 0 L 5.25 -72.15625 Z M 21.6875 -72.15625 "/></g></g></g><g fill="#a70000" fill-opacity="1"><g transform="translate(288.638092, 207.444646)"><g><path d="M 31.84375 -73.46875 C 35.75 -73.46875 39.566406 -72.898438 43.296875 -71.765625 C 47.023438 -70.628906 49.796875 -69.507812 51.609375 -68.40625 L 54.234375 -66.65625 L 47.578125 -53.53125 C 47.054688 -53.882812 46.328125 -54.335938 45.390625 -54.890625 C 44.460938 -55.441406 42.710938 -56.179688 40.140625 -57.109375 C 37.578125 -58.046875 35.1875 -58.515625 32.96875 -58.515625 C 30.226562 -58.515625 28.113281 -57.929688 26.625 -56.765625 C 25.144531 -55.597656 24.40625 -54.023438 24.40625 -52.046875 C 24.40625 -51.054688 24.753906 -50.132812 25.453125 -49.28125 C 26.148438 -48.4375 27.34375 -47.535156 29.03125 -46.578125 C 30.726562 -45.617188 32.21875 -44.847656 33.5 -44.265625 C 34.78125 -43.679688 36.765625 -42.804688 39.453125 -41.640625 C 44.117188 -39.648438 48.097656 -36.945312 51.390625 -33.53125 C 54.679688 -30.125 56.328125 -26.265625 56.328125 -21.953125 C 56.328125 -17.816406 55.582031 -14.203125 54.09375 -11.109375 C 52.613281 -8.015625 50.570312 -5.59375 47.96875 -3.84375 C 45.375 -2.09375 42.503906 -0.796875 39.359375 0.046875 C 36.210938 0.890625 32.800781 1.3125 29.125 1.3125 C 25.976562 1.3125 22.890625 0.988281 19.859375 0.34375 C 16.828125 -0.289062 14.289062 -1.085938 12.25 -2.046875 C 10.207031 -3.015625 8.367188 -3.960938 6.734375 -4.890625 C 5.097656 -5.828125 3.90625 -6.617188 3.15625 -7.265625 L 2.015625 -8.21875 L 10.234375 -22.046875 C 10.929688 -21.460938 11.890625 -20.71875 13.109375 -19.8125 C 14.335938 -18.90625 16.507812 -17.691406 19.625 -16.171875 C 22.75 -14.660156 25.507812 -13.90625 27.90625 -13.90625 C 34.84375 -13.90625 38.3125 -16.269531 38.3125 -21 C 38.3125 -21.988281 38.0625 -22.90625 37.5625 -23.75 C 37.070312 -24.59375 36.195312 -25.4375 34.9375 -26.28125 C 33.6875 -27.125 32.578125 -27.796875 31.609375 -28.296875 C 30.648438 -28.796875 29.078125 -29.550781 26.890625 -30.5625 C 24.703125 -31.582031 23.085938 -32.359375 22.046875 -32.890625 C 17.671875 -35.046875 14.285156 -37.738281 11.890625 -40.96875 C 9.503906 -44.207031 8.3125 -47.695312 8.3125 -51.4375 C 8.3125 -57.90625 10.703125 -63.191406 15.484375 -67.296875 C 20.265625 -71.410156 25.71875 -73.46875 31.84375 -73.46875 Z M 31.84375 -73.46875 "/></g></g></g><g clip-path="url(#2054aedc81)"><path fill="#000000" d="M 17.007812 172.5 C 17.007812 189.78125 27.988281 204.503906 43.320312 210.171875 C 42.75 208.601562 42.421875 206.914062 42.421875 205.148438 C 42.421875 201.285156 43.925781 197.773438 46.363281 195.136719 C 37.925781 191.082031 32.070312 182.472656 32.070312 172.5 C 32.070312 158.648438 43.34375 147.378906 57.195312 147.378906 C 71.050781 147.378906 82.320312 158.648438 82.320312 172.5 C 82.320312 182.472656 76.46875 191.082031 68.03125 195.136719 C 70.46875 197.773438 71.972656 201.285156 71.972656 205.148438 C 71.972656 206.914062 71.644531 208.601562 71.078125 210.171875 C 86.40625 204.503906 97.386719 189.78125 97.386719 172.5 C 97.386719 150.339844 79.359375 132.3125 57.195312 132.3125 C 35.035156 132.3125 17.007812 150.339844 17.007812 172.5 Z M 17.007812 172.5 " fill-opacity="1" fill-rule="nonzero"/></g><g clip-path="url(#279f97ea71)"><path fill="#a70000" d="M 64.722656 205.148438 C 64.722656 209.296875 61.34375 212.671875 57.195312 212.671875 C 53.050781 212.671875 49.675781 209.296875 49.675781 205.148438 C 49.675781 201 53.050781 197.628906 57.195312 197.628906 C 61.34375 197.628906 64.722656 201 64.722656 205.148438 Z M 64.722656 205.148438 " fill-opacity="1" fill-rule="nonzero"/></g><g clip-path="url(#69655ef37a)"><path fill="#a70000" d="M 71.988281 172.351562 L 63.542969 180.882812 C 61.910156 182.53125 58.558594 179.480469 60.523438 177.5625 L 65.867188 172.351562 L 60.351562 167.222656 C 58.671875 165.660156 61.785156 162.457031 63.457031 164.078125 Z M 71.988281 172.351562 " fill-opacity="1" fill-rule="nonzero"/></g><g clip-path="url(#c42b9c9729)"><path fill="#a70000" d="M 42.417969 172.636719 L 50.863281 164.105469 C 52.496094 162.457031 55.847656 165.503906 53.878906 167.421875 L 48.535156 172.636719 L 54.054688 177.765625 C 55.734375 179.328125 52.621094 182.53125 50.949219 180.910156 Z M 42.417969 172.636719 " fill-opacity="1" fill-rule="nonzero"/></g></svg>